<svg width="47" height="37" viewBox="0 0 47 37" fill="none" xmlns="http://www.w3.org/2000/svg">
<path d="M41.6412 0.5H5.64118C2.80055 0.5 0.498322 2.80223 0.498322 5.64286V31.3571C0.498322 34.1978 2.80055 36.5 5.64118 36.5H41.6412C44.4818 36.5 46.784 34.1978 46.784 31.3571V5.64286C46.784 2.80223 44.4778 0.5 41.6412 0.5ZM14.6412 8.21429C17.4818 8.21429 19.784 10.5165 19.784 13.3571C19.784 16.1978 17.4818 18.5 14.6412 18.5C11.8006 18.5 9.49832 16.1978 9.49832 13.3571C9.49832 10.5165 11.8046 8.21429 14.6412 8.21429ZM22.3555 28.7857H6.92689C6.21654 28.7857 5.64118 28.2071 5.64118 27.5C5.64118 23.9482 8.51957 21.0714 12.0697 21.0714H17.2126C20.7628 21.0714 23.6412 23.9498 23.6412 27.5C23.6412 28.2071 23.0626 28.7857 22.3555 28.7857ZM40.3555 23.6429H30.0697C29.3626 23.6429 28.784 23.0643 28.784 22.3571C28.784 21.65 29.3626 21.0714 30.0697 21.0714H40.3555C41.0626 21.0714 41.6412 21.65 41.6412 22.3571C41.6412 23.0643 41.0626 23.6429 40.3555 23.6429ZM40.3555 18.5H30.0697C29.3626 18.5 28.784 17.9214 28.784 17.2143C28.784 16.5071 29.3626 15.9286 30.0697 15.9286H40.3555C41.0626 15.9286 41.6412 16.5071 41.6412 17.2143C41.6412 17.9214 41.0626 18.5 40.3555 18.5ZM40.3555 13.3571H30.0697C29.3626 13.3571 28.784 12.7786 28.784 12.0714C28.784 11.3643 29.3626 10.7857 30.0697 10.7857H40.3555C41.0626 10.7857 41.6412 11.3643 41.6412 12.0714C41.6412 12.7786 41.0626 13.3571 40.3555 13.3571Z" fill="white"/>
</svg>
