<svg width="64" height="50" viewBox="0 0 64 50" fill="none" xmlns="http://www.w3.org/2000/svg">
<path d="M37.2762 18.9105C37.2762 16.4434 35.5347 15.0815 32.476 15.0815H26.8497V23.0297H31.5941C35.2556 23.0185 37.2762 21.545 37.2762 18.9105ZM57.7607 17.4816C56.7002 14.0322 56.5439 9.8013 56.6667 6.53048C56.7895 3.1257 54.1326 0 50.5604 0H13.8558C10.2724 0 7.6267 3.13686 7.7495 6.53048C7.86113 9.8013 7.71601 14.0322 6.6555 17.4816C5.58383 20.9422 3.78656 23.1302 0.828308 23.4092V26.5908C3.77539 26.8698 5.58383 29.0578 6.6555 32.5184C7.71601 35.9678 7.87229 40.1987 7.7495 43.4695C7.6267 46.8743 10.2835 50 13.8558 50H50.5492C54.1326 50 56.7783 46.8631 56.6555 43.4695C56.5439 40.1987 56.689 35.9678 57.7495 32.5184C58.8212 29.0578 60.6184 26.8698 63.5655 26.5908V23.4092C60.6296 23.1302 58.8212 20.9422 57.7607 17.4816ZM33.5588 38.301H22.6301V11.699H33.503C38.3367 11.699 41.507 14.3112 41.507 18.33C41.507 21.1543 39.3749 23.6772 36.651 24.1125V24.2576C40.3572 24.6595 42.8466 27.2271 42.8466 30.7658C42.8466 35.4655 39.3525 38.301 33.5588 38.301ZM32.4425 26.1666H26.8497V34.9185H32.6881C36.5059 34.9185 38.5265 33.3891 38.5265 30.509C38.5265 27.6401 36.4501 26.1666 32.4425 26.1666Z" fill="#7952B3"/>
</svg>
