<svg width="34" height="26" viewBox="0 0 34 26" fill="none" xmlns="http://www.w3.org/2000/svg">
<path d="M16.8821 7.54156C17.0436 7.52443 17.205 7.51872 17.3665 7.51872C20.4229 7.51872 22.9026 9.92246 22.9026 12.9999C22.9026 16.026 20.4229 18.4811 17.3665 18.4811C14.2582 18.4811 11.8304 16.026 11.8304 12.9999C11.8304 12.8401 11.8361 12.6802 11.8534 12.5203C12.3897 12.7772 13.0126 12.9999 13.6757 12.9999C15.7114 12.9999 17.3665 11.3613 17.3665 9.34579C17.3665 8.68918 17.1416 8.07255 16.8821 7.54156ZM28.4734 4.81238C31.1722 7.29034 32.9772 10.2079 33.8307 12.2976C34.021 12.7487 34.021 13.2511 33.8307 13.7022C32.9772 15.7405 31.1722 18.6581 28.4734 21.1875C25.7572 23.6883 22.0261 25.7894 17.3665 25.7894C12.7069 25.7894 8.97579 23.6883 6.26078 21.1875C3.56192 18.6581 1.75806 15.7405 0.900015 13.7022C0.710778 13.2511 0.710778 12.7487 0.900015 12.2976C1.75806 10.2079 3.56192 7.29034 6.26078 4.81238C8.97579 2.31386 12.7069 0.210449 17.3665 0.210449C22.0261 0.210449 25.7572 2.31386 28.4734 4.81238ZM17.3665 4.77812C12.7819 4.77812 9.0623 8.4608 9.0623 12.9999C9.0623 17.539 12.7819 21.2217 17.3665 21.2217C21.9511 21.2217 25.6707 17.539 25.6707 12.9999C25.6707 8.4608 21.9511 4.77812 17.3665 4.77812Z" fill="black"/>
</svg>
