<svg width="32" height="30" viewBox="0 0 32 30" fill="none" xmlns="http://www.w3.org/2000/svg">
<path d="M10.9789 24.156C10.9789 24.28 10.8362 24.3793 10.6563 24.3793C10.4516 24.3979 10.3089 24.2986 10.3089 24.156C10.3089 24.0319 10.4516 23.9326 10.6315 23.9326C10.8176 23.914 10.9789 24.0133 10.9789 24.156ZM9.04965 23.8768C9.00623 24.0009 9.1303 24.1435 9.3164 24.1808C9.47769 24.2428 9.66379 24.1808 9.70101 24.0567C9.73823 23.9326 9.62036 23.79 9.43426 23.7341C9.27298 23.6907 9.09308 23.7527 9.04965 23.8768ZM11.7915 23.7713C11.6116 23.8148 11.4876 23.9326 11.5062 24.0753C11.5248 24.1994 11.6861 24.28 11.8722 24.2366C12.0521 24.1932 12.1762 24.0753 12.1575 23.9512C12.1389 23.8334 11.9714 23.7527 11.7915 23.7713ZM15.8734 0C7.26928 0 0.6875 6.53216 0.6875 15.1362C0.6875 22.0158 5.01746 27.9028 11.2022 29.9747C11.9963 30.1174 12.2754 29.6273 12.2754 29.2241C12.2754 28.8395 12.2568 26.7179 12.2568 25.4152C12.2568 25.4152 7.91444 26.3457 7.00254 23.5666C7.00254 23.5666 6.29535 21.7614 5.278 21.2962C5.278 21.2962 3.85743 20.3223 5.37725 20.3409C5.37725 20.3409 6.92189 20.4649 7.77176 21.9413C9.1303 24.3359 11.4069 23.6473 12.294 23.2379C12.4367 22.2453 12.8399 21.5567 13.2866 21.1473C9.81887 20.7627 6.32017 20.2602 6.32017 14.2926C6.32017 12.5867 6.79162 11.7306 7.78416 10.6388C7.62288 10.2356 7.09559 8.57307 7.94545 6.4267C9.24196 6.02348 12.2258 8.10161 12.2258 8.10161C13.4665 7.75422 14.8002 7.57433 16.1215 7.57433C17.4428 7.57433 18.7766 7.75422 20.0172 8.10161C20.0172 8.10161 23.0011 6.01728 24.2976 6.4267C25.1474 8.57927 24.6201 10.2356 24.4588 10.6388C25.4514 11.7368 26.0593 12.5929 26.0593 14.2926C26.0593 20.2788 22.4055 20.7565 18.9378 21.1473C19.5086 21.6374 19.9924 22.5679 19.9924 24.0257C19.9924 26.1162 19.9738 28.703 19.9738 29.2117C19.9738 29.6149 20.2592 30.105 21.047 29.9623C27.2504 27.9028 31.4563 22.0158 31.4563 15.1362C31.4563 6.53216 24.4775 0 15.8734 0ZM6.71718 21.3955C6.63654 21.4575 6.65515 21.6002 6.76061 21.718C6.85986 21.8173 7.00254 21.8607 7.08318 21.7801C7.16383 21.718 7.14522 21.5753 7.03976 21.4575C6.94051 21.3582 6.79783 21.3148 6.71718 21.3955ZM6.04722 20.893C6.0038 20.9736 6.06583 21.0729 6.1899 21.1349C6.28915 21.1969 6.41322 21.1783 6.45664 21.0915C6.50007 21.0108 6.43803 20.9116 6.31396 20.8496C6.1899 20.8123 6.09064 20.8309 6.04722 20.893ZM8.05711 23.1014C7.95786 23.182 7.99508 23.3681 8.13776 23.486C8.28043 23.6287 8.46033 23.6473 8.54098 23.548C8.62162 23.4674 8.5844 23.2813 8.46033 23.1634C8.32386 23.0207 8.13776 23.0021 8.05711 23.1014ZM7.34993 22.1895C7.25067 22.2515 7.25067 22.4128 7.34993 22.5555C7.44918 22.6982 7.61667 22.7602 7.69732 22.6982C7.79657 22.6175 7.79657 22.4562 7.69732 22.3136C7.61047 22.1709 7.44918 22.1088 7.34993 22.1895Z" fill="black"/>
</svg>
