<svg width="41" height="37" viewBox="0 0 41 37" fill="none" xmlns="http://www.w3.org/2000/svg">
<path d="M40.4859 18.4648C40.4859 19.7305 39.4312 20.7219 38.2359 20.7219H35.9859L36.0352 31.9789C36.0352 32.1758 36.0211 32.3586 36 32.5484V33.6875C36 35.2414 34.7414 36.5 33.1875 36.5H32.0625C31.9852 36.5 31.9078 36.4367 31.8305 36.493C31.732 36.4367 31.6336 36.5 31.5352 36.5H27.5625C26.0086 36.5 24.75 35.2414 24.75 33.6875V27.5C24.75 26.2555 23.7445 25.25 22.5 25.25H18C16.7555 25.25 15.75 26.2555 15.75 27.5V33.6875C15.75 35.2414 14.4914 36.5 12.9375 36.5H9.00703C8.90156 36.5 8.79609 36.493 8.69063 36.4859C8.60625 36.493 8.52188 36.5 8.4375 36.5H7.3125C5.7593 36.5 4.5 35.2414 4.5 33.6875V25.8125C4.5 25.7492 4.50211 25.6789 4.50633 25.6156V20.7219H2.25352C0.985781 20.7219 0 19.7305 0 18.4648C0 17.832 0.211219 17.2695 0.703828 16.7773L18.7312 1.06362C19.2234 0.570453 19.7859 0.5 20.2781 0.5C20.7703 0.5 21.3328 0.640906 21.7617 0.993172L39.7125 16.7773C40.275 17.2695 40.5633 17.832 40.4859 18.4648Z" fill="white"/>
</svg>
