<svg width="40" height="37" viewBox="0 0 40 37" fill="none" xmlns="http://www.w3.org/2000/svg">
<path d="M24.7841 25.7C24.7841 26.3633 24.2474 26.9 23.5841 26.9H16.3841C15.7241 26.9 15.1841 26.36 15.1841 25.7V22.1H0.784058V32.9C0.784058 34.82 2.46481 36.5 4.38406 36.5H35.5841C37.5033 36.5 39.1841 34.8193 39.1841 32.9V22.1H24.7841V25.7ZM35.5841 7.7H29.5841V4.1C29.5841 2.18075 27.9041 0.5 25.9841 0.5H13.9841C12.0641 0.5 10.3841 2.18075 10.3841 4.1V7.7H4.38406C2.46481 7.7 0.784058 9.38 0.784058 11.3V19.7H39.1841V11.3C39.1841 9.38 37.5041 7.7 35.5841 7.7ZM25.9841 7.7H13.9841V4.1H25.9841V7.7Z" fill="white"/>
</svg>
