<svg width="50" height="50" viewBox="0 0 50 50" fill="none" xmlns="http://www.w3.org/2000/svg">
<path d="M24.9587 29.1499C27.2691 29.1499 29.1421 27.2769 29.1421 24.9665C29.1421 22.6561 27.2691 20.7832 24.9587 20.7832C22.6483 20.7832 20.7754 22.6561 20.7754 24.9665C20.7754 27.2769 22.6483 29.1499 24.9587 29.1499Z" fill="#00D8FF"/>
<path d="M24.9577 34.5501C19.0827 34.5501 13.9493 33.8585 10.1077 32.5418C7.61602 31.6918 5.49935 30.5585 3.99102 29.2668C2.39102 27.9001 1.54102 26.4085 1.54102 24.9668C1.54102 22.2001 4.57435 19.4918 9.66602 17.7251C13.8327 16.2751 19.266 15.4668 24.9493 15.4668C30.5327 15.4668 35.891 16.2501 40.0327 17.6835C42.4577 18.5168 44.4994 19.6001 45.9494 20.8001C47.5244 22.1168 48.3577 23.5585 48.3577 24.9668C48.3577 27.8418 44.966 30.7501 39.4994 32.5585C35.6327 33.8418 30.466 34.5501 24.9577 34.5501ZM24.9577 17.4668C19.566 17.4668 14.2327 18.2501 10.3327 19.6085C5.64935 21.2418 3.54935 23.4751 3.54935 24.9668C3.54935 26.5168 5.80768 28.9585 10.7577 30.6501C14.391 31.8918 19.3077 32.5501 24.9577 32.5501C30.2577 32.5501 35.1994 31.8835 38.8744 30.6585C44.016 28.9501 46.366 26.5085 46.366 24.9668C46.366 24.1751 45.766 23.2418 44.6743 22.3335C43.416 21.2835 41.5827 20.3251 39.391 19.5668C35.4494 18.2168 30.3243 17.4668 24.9577 17.4668Z" fill="#00D8FF"/>
<path d="M15.4658 45.8169C14.6158 45.8169 13.8658 45.6335 13.2324 45.2669C10.8408 43.8835 10.0074 39.9002 11.0158 34.6085C11.8408 30.2669 13.8574 25.1669 16.6991 20.2419C19.4908 15.4085 22.8408 11.1585 26.1491 8.28353C28.0824 6.6002 30.0408 5.36687 31.8074 4.71687C33.7324 4.00853 35.3991 4.00853 36.6158 4.70853C39.1074 6.14187 39.9324 10.5419 38.7658 16.1752C37.9408 20.1752 35.9741 25.0002 33.2241 29.7752C30.2908 34.8585 27.1241 38.9585 24.0658 41.6335C22.0824 43.3669 20.0408 44.6335 18.1741 45.2919C17.1991 45.6419 16.2824 45.8169 15.4658 45.8169ZM17.5574 20.7419L18.4241 21.2419C15.7324 25.9085 13.7408 30.9169 12.9741 34.9835C12.0491 39.8585 12.9408 42.7919 14.2241 43.5335C14.5408 43.7169 14.9574 43.8169 15.4658 43.8169C17.1241 43.8169 19.7324 42.7669 22.7491 40.1335C25.6408 37.6085 28.6658 33.6752 31.4908 28.7835C34.1408 24.1919 36.0241 19.5752 36.8074 15.7835C37.8991 10.4752 36.9574 7.2252 35.6158 6.4502C34.9324 6.05853 33.8241 6.10853 32.4908 6.6002C30.9491 7.16687 29.2074 8.2752 27.4574 9.8002C24.3158 12.5335 21.1074 16.6002 18.4241 21.2502L17.5574 20.7419Z" fill="#00D8FF"/>
<path d="M34.4504 45.8416C32.1838 45.8416 29.3088 44.4749 26.3088 41.8916C22.9588 39.0083 19.5504 34.7166 16.7004 29.7916C13.9004 24.9583 11.9004 19.9333 11.0588 15.6249C10.5671 13.1083 10.4754 10.7999 10.7921 8.9416C11.1421 6.9166 11.9671 5.47494 13.1921 4.7666C15.6754 3.32494 19.9004 4.80827 24.2004 8.63327C27.2504 11.3416 30.4504 15.4583 33.2088 20.2249C36.1504 25.3083 38.1254 30.0999 38.9088 34.0833C39.4171 36.6666 39.5004 39.0666 39.1421 41.0166C38.7588 43.0916 37.8921 44.5666 36.6421 45.2916C36.0171 45.6583 35.2754 45.8416 34.4504 45.8416ZM18.4338 28.7916C21.1338 33.4583 24.4838 37.6833 27.6171 40.3749C31.3754 43.6083 34.3588 44.3083 35.6504 43.5583C36.9921 42.7833 37.9754 39.6083 36.9588 34.4749C36.2088 30.7083 34.3171 26.1249 31.4838 21.2333C28.8254 16.6416 25.7671 12.6999 22.8754 10.1333C18.8254 6.53327 15.5421 5.72494 14.2004 6.49994C13.5171 6.8916 13.0088 7.88327 12.7671 9.28327C12.4921 10.8999 12.5754 12.9666 13.0254 15.2416C13.8254 19.3333 15.7421 24.1416 18.4338 28.7916Z" fill="#00D8FF"/>
</svg>
