<svg width="67" height="50" viewBox="0 0 67 50" fill="none" xmlns="http://www.w3.org/2000/svg">
<path d="M57.5529 28.7388C55.2197 28.7491 53.1991 29.3117 51.5118 30.145C50.8972 28.9052 50.2617 27.8221 50.1575 27.0098C50.0328 26.0617 49.8972 25.4995 50.0431 24.3746C50.1891 23.2494 50.845 21.6558 50.8347 21.5414C50.8244 21.4269 50.6889 20.8539 49.3453 20.8434C48.0017 20.8332 46.8457 21.1038 46.7101 21.4579C46.5745 21.812 46.3144 22.6142 46.1581 23.4474C45.9185 24.6661 43.4706 29.02 42.0853 31.2906C41.6271 30.4055 41.2418 29.6241 41.1583 28.9991C41.0333 28.0511 40.8979 27.4888 41.0438 26.364C41.1896 25.2388 41.8457 23.6452 41.8352 23.5308C41.8248 23.4163 41.6894 22.8433 40.346 22.8328C39.0022 22.8225 37.8463 23.0932 37.7106 23.4474C37.5752 23.8014 37.4294 24.6348 37.1586 25.4371C36.888 26.2387 33.6276 33.4882 32.7736 35.3736C32.3359 36.3316 31.9612 37.1025 31.6903 37.6235C31.6488 37.7067 31.6175 37.7589 31.5967 37.8006C31.6278 37.7486 31.6488 37.6963 31.6488 37.7174C31.4197 38.1651 31.2841 38.4151 31.2841 38.4151V38.4254C31.107 38.7587 30.9091 39.0606 30.8155 39.0606C30.7529 39.0606 30.6176 38.1859 30.8468 36.988C31.3362 34.4674 32.4923 30.5513 32.4819 30.4157C32.4715 30.3428 32.7005 29.6658 31.7215 29.3011C30.7737 28.9574 30.4299 29.5304 30.3467 29.5304C30.2635 29.5304 30.2009 29.7389 30.2009 29.7389C30.2009 29.7389 31.253 25.3225 28.1802 25.3225C26.2637 25.3225 23.5974 27.4267 22.2851 29.3327C21.4621 29.7806 19.6809 30.7492 17.8062 31.7803C17.0875 32.1762 16.3479 32.5822 15.6501 32.9678C15.5981 32.9154 15.5563 32.8634 15.5043 32.8114C11.7754 28.8327 4.89054 26.0204 5.18234 20.6769C5.28642 18.7291 5.96351 13.6152 18.4208 7.40726C28.6284 2.32435 36.7942 3.72014 38.2006 6.82395C40.221 11.2508 33.8361 19.4897 23.2329 20.6769C19.1915 21.1248 17.0669 19.5625 16.5356 18.9793C15.9835 18.3648 15.9002 18.3334 15.6918 18.448C15.348 18.6355 15.5669 19.1772 15.6918 19.5C16.0044 20.3228 17.3062 21.781 19.5249 22.5102C21.4724 23.1455 26.2118 23.4998 31.9403 21.2811C38.3773 18.802 43.3874 11.8963 41.9187 6.1157C40.419 0.241322 30.6802 -1.68573 21.4623 1.58478C15.9732 3.53257 10.0362 6.59492 5.76565 10.584C0.693173 15.3338 -0.119165 19.4687 0.213946 21.1979C1.40143 27.3326 9.85893 31.3324 13.2441 34.2904C13.0774 34.3841 12.9211 34.4675 12.7755 34.5508C11.0777 35.3944 4.63034 38.7691 3.01581 42.3317C1.19327 46.3729 3.31776 49.2683 4.71355 49.6643C9.06733 50.8724 13.5253 48.6956 15.921 45.1228C18.3164 41.5504 18.0249 36.8841 16.9209 34.7592C16.9104 34.728 16.8896 34.7074 16.8793 34.6758C17.3167 34.4156 17.7644 34.1551 18.2125 33.8948C19.0769 33.3844 19.9207 32.9154 20.6601 32.5096C20.2433 33.6346 19.9414 34.988 19.7851 36.9466C19.5977 39.2379 20.5456 42.2065 21.7747 43.3731C22.3161 43.8835 22.9723 43.894 23.3786 43.894C24.816 43.894 25.4616 42.7064 26.1803 41.2899C27.0657 39.5606 27.8469 37.5503 27.8469 37.5503C27.8469 37.5503 26.8679 42.9878 29.5446 42.9878C30.5237 42.9878 31.503 41.7274 31.9402 41.0816V41.0919C31.9402 41.0919 31.9612 41.0504 32.0133 40.9672C32.1173 40.8108 32.1694 40.717 32.1694 40.717V40.6856C32.5651 40.0086 33.4298 38.4566 34.7315 35.8945C36.4191 32.582 38.0333 28.4469 38.0333 28.4469C38.0333 28.4469 38.1791 29.4575 38.6794 31.1344C38.9709 32.1238 39.5854 33.2071 40.0749 34.2592C39.6793 34.8008 39.4395 35.1133 39.4395 35.1133C39.4395 35.1133 39.4395 35.1236 39.4497 35.134C39.1373 35.5509 38.7833 35.9988 38.4188 36.4363C37.0854 38.0194 35.5022 39.8319 35.2941 40.3526C35.0439 40.9672 35.1065 41.4251 35.5857 41.7796C35.9397 42.0505 36.5648 42.0919 37.2208 42.04C38.4188 41.9564 39.2624 41.665 39.6686 41.4772C40.3142 41.2484 41.0644 40.8836 41.7726 40.3733C43.0746 39.4153 43.8664 38.0404 43.7932 36.228C43.7516 35.2281 43.4285 34.228 43.0327 33.2909C43.1474 33.124 43.2725 32.9468 43.387 32.7701C45.4496 29.7594 47.0431 26.4581 47.0431 26.4581C47.0431 26.4581 47.1889 27.4681 47.6887 29.1451C47.9388 29.9889 48.4283 30.9159 48.8761 31.8219C46.9387 33.3948 45.7411 35.2178 45.3243 36.4153C44.5535 38.634 45.1576 39.6336 46.2929 39.8632C46.8033 39.9673 47.5325 39.7275 48.0742 39.4984C48.7511 39.2692 49.5636 38.9046 50.3239 38.3422C51.6259 37.3842 52.8863 36.0403 52.8031 34.2176C52.7716 33.3947 52.5426 32.5719 52.2405 31.7803C53.8756 31.0931 56.0008 30.7178 58.7088 31.0304C64.5104 31.7074 65.6455 35.332 65.4268 36.8422C65.2084 38.3631 63.9897 39.1964 63.5834 39.4463C63.1769 39.6964 63.0521 39.7902 63.0836 39.9776C63.1355 40.2484 63.3229 40.2381 63.6666 40.1753C64.146 40.0921 66.7081 38.9462 66.8224 36.1444C66.9894 32.6029 63.5837 28.7076 57.5529 28.7388ZM12.8379 43.8104C10.9216 45.904 8.23426 46.6956 7.07823 46.029C5.8387 45.3106 6.32822 42.2273 8.69261 39.9982C10.13 38.6443 11.984 37.3945 13.2131 36.6237C13.4943 36.4572 13.9006 36.2071 14.4006 35.905C14.4839 35.8533 14.5255 35.8323 14.5255 35.8323C14.6192 35.7695 14.7234 35.7176 14.8276 35.655C15.6918 38.8214 14.8586 41.6127 12.8379 43.8104ZM26.8368 34.2904C26.1702 35.9255 24.764 40.092 23.9102 39.8732C23.181 39.6857 22.733 36.5089 23.7643 33.3844C24.285 31.8115 25.389 29.9367 26.0454 29.2077C27.0972 28.0306 28.2534 27.6555 28.5243 28.1243C28.8887 28.7388 27.2533 33.2697 26.8368 34.2904ZM38.3982 39.811C38.1171 39.9567 37.8566 40.0504 37.7317 39.9775C37.638 39.9254 37.8463 39.7274 37.8463 39.7274C37.8463 39.7274 39.2939 38.1755 39.8669 37.4669C40.2001 37.0505 40.5854 36.5608 41.0022 36.0194C41.0022 36.0712 41.0123 36.1236 41.0123 36.1858C41.0023 38.0505 39.2108 39.3111 38.3982 39.811ZM47.3143 37.7798C47.106 37.6339 47.137 37.1444 47.835 35.6235C48.1059 35.0298 48.731 34.03 49.8139 33.0717C49.939 33.4674 50.0118 33.8423 50.0118 34.1964C50.0012 36.5401 48.3245 37.4151 47.3143 37.7798Z" fill="#CF649A"/>
</svg>
