<svg width="723" height="428" viewBox="0 0 723 428" fill="none" xmlns="http://www.w3.org/2000/svg">
<g clip-path="url(#clip0_537_108)">
<path d="M652.683 296.231H103.374C96.3521 296.223 89.6198 293.43 84.6543 288.465C79.6888 283.499 76.8957 276.767 76.8878 269.745V61.3066C76.8958 54.2844 79.6889 47.5521 84.6544 42.5866C89.6198 37.6211 96.3522 34.8281 103.374 34.8201H652.683C659.705 34.8281 666.438 37.6211 671.403 42.5866C676.369 47.5521 679.162 54.2844 679.17 61.3066V269.745C679.162 276.767 676.369 283.499 671.403 288.465C666.438 293.43 659.705 296.223 652.683 296.231Z" fill="white"/>
<path d="M652.683 296.231H103.374C96.3521 296.223 89.6198 293.43 84.6543 288.465C79.6888 283.499 76.8957 276.767 76.8878 269.745V61.3066C76.8958 54.2844 79.6889 47.5521 84.6544 42.5866C89.6198 37.6211 96.3522 34.8281 103.374 34.8201H652.683C659.705 34.8281 666.438 37.6211 671.403 42.5866C676.369 47.5521 679.162 54.2844 679.17 61.3066V269.745C679.162 276.767 676.369 283.499 671.403 288.465C666.438 293.43 659.705 296.223 652.683 296.231ZM103.374 37.1232C96.9606 37.1232 90.8094 39.6711 86.2741 44.2064C81.7389 48.7417 79.191 54.8928 79.191 61.3066V269.745C79.191 272.92 79.8165 276.065 81.0318 278.999C82.2472 281.933 84.0285 284.599 86.2741 286.845C88.5198 289.09 91.1857 290.872 94.1198 292.087C97.0539 293.302 100.199 293.928 103.374 293.928H652.683C655.859 293.928 659.004 293.302 661.938 292.087C664.872 290.872 667.538 289.09 669.783 286.845C672.029 284.599 673.81 281.933 675.026 278.999C676.241 276.065 676.866 272.92 676.866 269.745V191.152C676.866 150.301 660.638 111.123 631.752 82.2373C602.866 53.3513 563.689 37.1232 522.838 37.1232H103.374Z" fill="#E6E6E6"/>
<path d="M59.9106 340.604C60.1353 339.06 58.5181 337.547 56.2986 337.224C54.0791 336.901 52.0977 337.891 51.8731 339.435C51.6484 340.979 53.2656 342.492 55.4851 342.815C57.7046 343.138 59.686 342.148 59.9106 340.604Z" fill="white"/>
<path d="M86.3364 338.026C86.561 336.482 84.9438 334.968 82.7243 334.645C80.5048 334.322 78.5234 335.312 78.2988 336.856C78.0741 338.4 79.6913 339.914 81.9108 340.237C84.1303 340.56 86.1117 339.57 86.3364 338.026Z" fill="#3F3D56"/>
<path d="M52.6745 319.211C52.8992 317.667 51.282 316.153 49.0625 315.83C46.843 315.507 44.8616 316.497 44.637 318.041C44.4123 319.585 46.0295 321.099 48.249 321.422C50.4685 321.745 52.4499 320.755 52.6745 319.211Z" fill="#FF6584"/>
<path d="M41.1919 310.447C41.2026 309.03 40.4119 307.875 39.4258 307.867C38.4398 307.86 37.6317 309.003 37.621 310.42C37.6103 311.838 38.401 312.993 39.387 313C40.3731 313.008 41.1811 311.865 41.1919 310.447Z" fill="#E6E6E6"/>
<path d="M37.2979 294.125C37.3086 292.708 36.5179 291.552 35.5319 291.545C34.5458 291.538 33.7378 292.681 33.727 294.098C33.7163 295.515 34.507 296.671 35.4931 296.678C36.4791 296.686 37.2872 295.542 37.2979 294.125Z" fill="#3F3D56"/>
<path d="M67.5788 322.851C67.5895 321.434 66.7989 320.279 65.8128 320.271C64.8268 320.264 64.0187 321.407 64.008 322.824C63.9973 324.242 64.7879 325.397 65.774 325.404C66.7601 325.412 67.5681 324.269 67.5788 322.851Z" fill="#E6E6E6"/>
<path d="M54.8088 329.227C54.8195 327.81 54.0289 326.654 53.0428 326.647C52.0567 326.64 51.2487 327.783 51.238 329.2C51.2273 330.618 52.0179 331.773 53.004 331.78C53.99 331.788 54.7981 330.645 54.8088 329.227Z" fill="#FF6584"/>
<path d="M72.5852 341.012C72.5959 339.594 71.8052 338.439 70.8191 338.432C69.833 338.424 69.025 339.567 69.0143 340.985C69.0036 342.402 69.7942 343.557 70.7803 343.565C71.7663 343.572 72.5744 342.429 72.5852 341.012Z" fill="#3F3D56"/>
<path d="M698.327 7.74103C698.815 5.81314 696.965 3.68096 694.194 2.97864C691.422 2.27631 688.78 3.2698 688.291 5.19769C687.802 7.12559 689.653 9.25782 692.424 9.96015C695.196 10.6625 697.838 9.66893 698.327 7.74103Z" fill="white"/>
<path d="M664.483 7.52282C664.972 5.59493 663.121 3.4627 660.35 2.76038C657.579 2.05805 654.936 3.0516 654.447 4.97949C653.959 6.90738 655.809 9.03956 658.581 9.74189C661.352 10.4442 663.995 9.45072 664.483 7.52282Z" fill="#3F3D56"/>
<path d="M704.678 35.8194C705.166 33.8915 703.316 31.7593 700.545 31.057C697.773 30.3547 695.13 31.3482 694.642 33.2761C694.153 35.204 696.004 37.3362 698.775 38.0385C701.547 38.7408 704.189 37.7473 704.678 35.8194Z" fill="#FF6584"/>
<path d="M712.567 46.4072C712.768 44.6115 711.918 43.0426 710.669 42.9031C709.42 42.7635 708.244 44.106 708.044 45.9017C707.843 47.6974 708.693 49.2662 709.942 49.4058C711.191 49.5454 712.367 48.2029 712.567 46.4072Z" fill="#E6E6E6"/>
<path d="M715.355 67.6113C715.555 65.8156 714.705 64.2467 713.456 64.1071C712.207 63.9676 711.032 65.3101 710.831 67.1058C710.63 68.9015 711.48 70.4703 712.73 70.6099C713.979 70.7495 715.154 69.407 715.355 67.6113Z" fill="#3F3D56"/>
<path d="M680.75 27.1989C680.95 25.4032 680.1 23.8344 678.851 23.6948C677.602 23.5552 676.427 24.8978 676.226 26.6935C676.026 28.4891 676.876 30.058 678.125 30.1976C679.374 30.3371 680.549 28.9946 680.75 27.1989Z" fill="#E6E6E6"/>
<path d="M697.781 20.8005C697.982 19.0048 697.132 17.436 695.883 17.2964C694.634 17.1568 693.458 18.4993 693.258 20.295C693.057 22.0907 693.907 23.6595 695.156 23.7991C696.406 23.9387 697.581 22.5962 697.781 20.8005Z" fill="#FF6584"/>
<path d="M676.799 3.5141C677 1.71841 676.15 0.149578 674.901 0.00999821C673.652 -0.129582 672.476 1.21295 672.276 3.00864C672.075 4.80432 672.925 6.37316 674.174 6.51274C675.423 6.65232 676.599 5.30978 676.799 3.5141Z" fill="#3F3D56"/>
<path d="M549.859 98.3819H403.607C402.386 98.3801 401.216 97.894 400.354 97.0303C399.491 96.1667 399.007 94.9961 399.007 93.7755C399.007 92.555 399.491 91.3844 400.354 90.5208C401.216 89.6571 402.386 89.171 403.607 89.1692H549.859C551.08 89.1692 552.252 89.6545 553.116 90.5184C553.98 91.3822 554.465 92.5539 554.465 93.7755C554.465 94.9972 553.98 96.1689 553.116 97.0327C552.252 97.8966 551.08 98.3819 549.859 98.3819V98.3819Z" fill="#AB0000"/>
<path d="M549.859 160.568H403.607C402.386 160.566 401.216 160.08 400.354 159.216C399.491 158.352 399.007 157.182 399.007 155.961C399.007 154.741 399.491 153.57 400.354 152.707C401.216 151.843 402.386 151.357 403.607 151.355H549.859C551.079 151.357 552.249 151.843 553.111 152.707C553.974 153.57 554.458 154.741 554.458 155.961C554.458 157.182 553.974 158.352 553.111 159.216C552.249 160.08 551.079 160.566 549.859 160.568V160.568Z" fill="#E6E6E6"/>
<path d="M549.859 222.754H403.607C402.386 222.752 401.216 222.266 400.354 221.402C399.491 220.539 399.007 219.368 399.007 218.147C399.007 216.927 399.491 215.756 400.354 214.893C401.216 214.029 402.386 213.543 403.607 213.541H549.859C551.08 213.541 552.252 214.026 553.116 214.89C553.98 215.754 554.465 216.926 554.465 218.147C554.465 219.369 553.98 220.541 553.116 221.405C552.252 222.268 551.08 222.754 549.859 222.754V222.754Z" fill="#E6E6E6"/>
<path d="M184.221 360.174C167.71 338.213 158.167 313.655 157.854 285.657C157.322 284.148 157.41 282.489 158.1 281.046C158.789 279.602 160.022 278.49 161.53 277.955L217.808 258.042C219.316 257.511 220.975 257.599 222.419 258.288C223.862 258.977 224.974 260.211 225.509 261.718L251.876 336.236C252.408 337.745 252.319 339.403 251.63 340.847C250.941 342.291 249.707 343.402 248.2 343.938L191.922 363.85C190.413 364.382 188.755 364.294 187.311 363.605C185.867 362.916 184.756 361.682 184.221 360.174V360.174Z" fill="#E6E6E6"/>
<path d="M180.574 336.14C170.643 326.099 166.393 308.192 163.623 288.233C163.125 286.82 163.207 285.267 163.853 283.915C164.498 282.562 165.654 281.521 167.066 281.02L215.431 263.907C216.844 263.409 218.397 263.491 219.75 264.137C221.102 264.782 222.143 265.938 222.644 267.349L246.107 333.66C246.605 335.073 246.522 336.626 245.877 337.979C245.231 339.331 244.076 340.372 242.664 340.873L212.702 351.474C206.408 353.693 199.49 353.325 193.467 350.45C187.444 347.576 182.807 342.429 180.574 336.14V336.14Z" fill="white"/>
<path d="M223.292 303.071L185.616 316.52C185.319 316.626 185.005 316.672 184.69 316.656C184.375 316.641 184.066 316.563 183.781 316.428C183.497 316.293 183.241 316.103 183.03 315.87C182.818 315.636 182.655 315.363 182.549 315.066C182.443 314.769 182.396 314.454 182.412 314.14C182.428 313.825 182.505 313.516 182.64 313.231C182.775 312.946 182.965 312.691 183.199 312.479C183.432 312.268 183.706 312.105 184.002 311.999L221.678 298.55C222.278 298.336 222.937 298.369 223.513 298.642C224.088 298.914 224.531 299.404 224.745 300.004C224.959 300.604 224.927 301.263 224.654 301.839C224.381 302.414 223.891 302.857 223.292 303.071H223.292Z" fill="#AB0000"/>
<path d="M189.48 301.164L181.191 304.123C180.894 304.229 180.579 304.276 180.264 304.26C179.949 304.245 179.64 304.167 179.355 304.032C179.07 303.898 178.814 303.708 178.603 303.474C178.391 303.24 178.227 302.967 178.121 302.67C178.015 302.373 177.969 302.058 177.985 301.743C178 301.428 178.078 301.119 178.213 300.834C178.349 300.549 178.539 300.294 178.773 300.082C179.007 299.871 179.28 299.707 179.577 299.602L187.866 296.643C188.163 296.537 188.478 296.49 188.793 296.505C189.108 296.521 189.417 296.598 189.702 296.733C189.987 296.868 190.243 297.058 190.454 297.292C190.666 297.525 190.83 297.799 190.936 298.096C191.042 298.393 191.088 298.708 191.072 299.023C191.057 299.338 190.979 299.647 190.844 299.932C190.708 300.217 190.518 300.472 190.284 300.684C190.05 300.895 189.777 301.058 189.48 301.164Z" fill="#AB0000"/>
<path d="M230.386 322.947L192.711 336.395C192.111 336.609 191.452 336.575 190.877 336.302C190.303 336.03 189.86 335.54 189.646 334.941C189.432 334.342 189.465 333.682 189.737 333.107C190.009 332.532 190.498 332.089 191.097 331.874L228.773 318.426C229.372 318.213 230.031 318.246 230.606 318.519C231.181 318.792 231.624 319.281 231.838 319.88C232.052 320.48 232.019 321.139 231.747 321.714C231.475 322.289 230.985 322.733 230.386 322.947Z" fill="#AB0000"/>
<path d="M226.839 313.009L189.164 326.458C188.564 326.672 187.904 326.639 187.329 326.366C186.753 326.093 186.31 325.603 186.096 325.004C185.882 324.404 185.915 323.744 186.188 323.169C186.46 322.594 186.95 322.15 187.55 321.936L225.225 308.488C225.522 308.382 225.837 308.335 226.152 308.351C226.467 308.366 226.776 308.443 227.061 308.578C227.346 308.713 227.602 308.903 227.814 309.137C228.025 309.371 228.189 309.644 228.295 309.941C228.401 310.238 228.448 310.553 228.432 310.868C228.416 311.183 228.338 311.492 228.203 311.777C228.068 312.062 227.878 312.317 227.644 312.529C227.41 312.74 227.136 312.904 226.839 313.009Z" fill="#AB0000"/>
<path d="M596.727 117.359H355.876C355.611 117.359 355.357 117.253 355.169 117.066C354.982 116.878 354.876 116.624 354.876 116.359C354.876 116.093 354.982 115.839 355.169 115.652C355.357 115.464 355.611 115.359 355.876 115.359H596.727C596.992 115.359 597.247 115.464 597.434 115.652C597.622 115.839 597.727 116.093 597.727 116.359C597.727 116.624 597.622 116.878 597.434 117.066C597.247 117.253 596.992 117.359 596.727 117.359Z" fill="#E6E6E6"/>
<path d="M596.727 179.358H355.876C355.611 179.358 355.357 179.253 355.169 179.066C354.982 178.878 354.876 178.624 354.876 178.358C354.876 178.093 354.982 177.839 355.169 177.651C355.357 177.464 355.611 177.358 355.876 177.358H596.727C596.992 177.358 597.247 177.464 597.434 177.651C597.622 177.839 597.727 178.093 597.727 178.358C597.727 178.624 597.622 178.878 597.434 179.066C597.247 179.253 596.992 179.358 596.727 179.358Z" fill="#E6E6E6"/>
<path d="M596.727 241.358H355.876C355.611 241.358 355.357 241.253 355.169 241.065C354.982 240.877 354.876 240.623 354.876 240.358C354.876 240.093 354.982 239.838 355.169 239.651C355.357 239.463 355.611 239.358 355.876 239.358H596.727C596.992 239.358 597.247 239.463 597.434 239.651C597.622 239.838 597.727 240.093 597.727 240.358C597.727 240.623 597.622 240.877 597.434 241.065C597.247 241.253 596.992 241.358 596.727 241.358Z" fill="#E6E6E6"/>
<path d="M632.576 237.394C623.758 237.394 615.231 234.245 608.53 228.515C606.294 226.601 603.913 223.274 601.451 218.628C599.879 215.635 599 212.327 598.875 208.949C598.751 205.571 599.386 202.208 600.733 199.108C599.435 200.429 597.999 201.607 596.449 202.622L595.666 203.143L595.62 202.204C595.591 201.593 595.576 200.984 595.576 200.394C595.576 196.918 598.205 193.391 596.992 190.178C591.882 176.635 575.672 163.177 599.165 142.218C601.338 140.279 598.435 136.403 598.435 133.47C598.435 104.722 639.065 54.9871 650.581 81.3338C664.782 113.826 689.25 110.35 700.089 117.062L700.246 117.536L699.783 117.724C697.41 118.721 694.912 119.385 692.358 119.699C695.081 120.254 697.859 120.487 700.637 120.392L701.067 120.377L701.172 120.796C702.206 124.941 702.728 129.197 702.727 133.47L702.725 133.931C702.715 137.176 703.39 140.387 704.704 143.354C706.019 146.32 707.943 148.977 710.353 151.15C714.16 154.621 717.202 158.846 719.285 163.558C721.368 168.269 722.447 173.363 722.452 178.514C722.452 184.609 718.31 192.609 714.835 198.247C713.954 199.683 712.76 200.901 711.341 201.81C709.923 202.718 708.317 203.294 706.644 203.493C705.059 203.693 703.45 203.542 701.931 203.051C700.411 202.56 699.018 201.742 697.85 200.652C699.494 203.959 701.638 206.994 704.204 209.65L704.679 210.138L704.09 210.481C698.433 213.78 692.001 215.517 685.452 215.514L685.069 215.513C680.267 215.464 675.504 216.373 671.058 218.188C666.612 220.002 662.573 222.686 659.178 226.081C655.72 229.643 651.586 232.478 647.018 234.421C642.45 236.364 637.54 237.374 632.576 237.394Z" fill="#E6E6E6"/>
<path d="M619.846 295.988C619.686 295.988 619.531 295.93 619.411 295.825C619.29 295.72 619.211 295.575 619.188 295.417C617.448 279.9 617.344 264.244 618.878 248.706C621.174 224.194 628.55 188.889 650.644 159.893C650.697 159.823 650.763 159.765 650.839 159.721C650.914 159.677 650.998 159.649 651.084 159.637C651.171 159.625 651.259 159.631 651.343 159.653C651.428 159.675 651.507 159.714 651.576 159.767C651.646 159.82 651.704 159.886 651.748 159.962C651.792 160.037 651.821 160.121 651.833 160.207C651.844 160.294 651.839 160.382 651.817 160.466C651.794 160.551 651.755 160.63 651.702 160.7C629.799 189.445 622.483 224.492 620.203 248.83C618.677 264.264 618.779 279.816 620.506 295.229C620.519 295.323 620.512 295.42 620.485 295.511C620.458 295.602 620.412 295.687 620.349 295.759C620.287 295.831 620.209 295.889 620.123 295.928C620.036 295.968 619.941 295.988 619.846 295.988V295.988Z" fill="#3F3D56"/>
<path d="M637.876 200.793C637.736 200.793 637.599 200.749 637.485 200.666C637.371 200.584 637.286 200.467 637.243 200.333C637.199 200.2 637.199 200.056 637.243 199.922C637.286 199.788 637.371 199.672 637.484 199.589C643.78 195.328 650.581 191.866 657.731 189.283C668.901 185.193 685.887 181.486 703.373 187.051C703.457 187.078 703.534 187.121 703.601 187.177C703.668 187.233 703.723 187.302 703.763 187.38C703.803 187.457 703.827 187.542 703.835 187.629C703.842 187.716 703.832 187.804 703.806 187.887C703.779 187.97 703.737 188.048 703.68 188.114C703.624 188.181 703.555 188.236 703.477 188.276C703.4 188.316 703.315 188.341 703.228 188.348C703.141 188.356 703.053 188.346 702.97 188.319C685.841 182.868 669.163 186.514 658.188 190.533C651.153 193.071 644.461 196.475 638.267 200.666C638.153 200.748 638.017 200.793 637.876 200.793V200.793Z" fill="#3F3D56"/>
<path d="M607.422 124.943C607.412 124.803 607.446 124.663 607.52 124.543C607.594 124.424 607.704 124.331 607.835 124.278C607.965 124.225 608.108 124.215 608.245 124.248C608.381 124.282 608.504 124.358 608.594 124.465C613.298 130.438 617.241 136.972 620.332 143.917C625.215 154.764 630.136 171.438 625.844 189.281C625.824 189.366 625.787 189.446 625.736 189.517C625.685 189.588 625.62 189.648 625.545 189.694C625.471 189.74 625.388 189.77 625.301 189.784C625.215 189.798 625.127 189.794 625.042 189.774C624.956 189.753 624.876 189.716 624.805 189.665C624.735 189.613 624.675 189.548 624.629 189.473C624.584 189.399 624.553 189.316 624.54 189.229C624.526 189.143 624.53 189.054 624.551 188.969C628.754 171.493 623.916 155.121 619.118 144.463C616.079 137.629 612.203 131.2 607.577 125.323C607.486 125.216 607.432 125.083 607.422 124.943V124.943Z" fill="#3F3D56"/>
<path d="M63.2744 224.082C59.8787 220.687 55.8397 218.003 51.3938 216.189C46.9479 214.374 42.1847 213.465 37.383 213.514L36.9995 213.515C30.4509 213.518 24.0191 211.781 18.362 208.482L17.7733 208.139L18.2474 207.651C20.8143 204.995 22.9576 201.96 24.6024 198.653C23.4342 199.742 22.041 200.561 20.5213 201.052C19.0016 201.543 17.3926 201.694 15.8081 201.494C14.1353 201.295 12.5293 200.719 11.1107 199.811C9.6921 198.902 8.49764 197.684 7.61696 196.248C4.14208 190.61 -3.05176e-05 182.61 -3.05176e-05 176.515C0.00537727 171.364 1.08397 166.27 3.16701 161.559C5.25005 156.847 8.29184 152.622 12.0985 149.151C14.5084 146.978 16.4333 144.321 17.7477 141.355C19.0621 138.388 19.7365 135.177 19.7269 131.932L19.725 131.471C19.7243 127.198 20.2464 122.942 21.2795 118.797L21.3844 118.378L21.8151 118.393C24.5925 118.488 27.3713 118.255 30.0942 117.7C27.5401 117.386 25.0415 116.722 22.6693 115.725L22.206 115.537L22.3632 115.063C33.2024 108.351 57.6696 111.827 71.8711 79.3347C83.3866 52.988 124.017 102.723 124.017 131.471C124.017 134.404 121.114 138.28 123.287 140.219C146.78 161.178 130.57 174.636 125.46 188.179C124.247 191.392 126.876 194.919 126.876 198.395C126.876 198.985 126.861 199.594 126.831 200.205L126.786 201.144L126.003 200.623C124.453 199.608 123.017 198.43 121.718 197.109C123.066 200.209 123.701 203.572 123.576 206.95C123.452 210.328 122.572 213.635 121.001 216.629C118.539 221.275 116.157 224.602 113.922 226.515C106.761 232.644 97.5295 235.805 88.1151 235.352C78.7008 234.9 69.8149 230.868 63.2743 224.082H63.2744Z" fill="#E6E6E6"/>
<path d="M102.606 293.989C102.766 293.989 102.921 293.931 103.041 293.826C103.162 293.721 103.241 293.576 103.264 293.418C105.004 277.901 105.108 262.245 103.574 246.707C101.277 222.195 93.902 186.89 71.808 157.894C71.7551 157.824 71.6889 157.766 71.6134 157.722C71.5379 157.678 71.4544 157.65 71.3678 157.638C71.2812 157.626 71.1932 157.632 71.1087 157.654C71.0242 157.676 70.9449 157.715 70.8754 157.768C70.8059 157.821 70.7475 157.887 70.7036 157.963C70.6596 158.038 70.631 158.122 70.6193 158.208C70.6076 158.295 70.6131 158.383 70.6354 158.467C70.6578 158.552 70.6965 158.631 70.7495 158.701C92.6527 187.446 99.9687 222.492 102.249 246.831C103.774 262.265 103.673 277.817 101.946 293.23C101.933 293.324 101.94 293.421 101.967 293.512C101.994 293.603 102.04 293.688 102.103 293.76C102.165 293.832 102.243 293.89 102.329 293.929C102.416 293.969 102.51 293.989 102.606 293.989V293.989Z" fill="#3F3D56"/>
<path d="M84.5758 198.794C84.7164 198.794 84.8533 198.75 84.9671 198.667C85.0809 198.585 85.1656 198.468 85.2091 198.334C85.2526 198.201 85.2526 198.057 85.2092 197.923C85.1658 197.789 85.0812 197.673 84.9675 197.59C78.672 193.329 71.8711 189.867 64.7213 187.284C53.5511 183.194 36.5652 179.487 19.0784 185.052C18.9952 185.079 18.9179 185.121 18.8512 185.178C18.7844 185.234 18.7294 185.303 18.6892 185.381C18.6491 185.458 18.6246 185.543 18.6172 185.63C18.6099 185.717 18.6197 185.805 18.6462 185.888C18.6727 185.971 18.7153 186.049 18.7717 186.115C18.828 186.182 18.897 186.237 18.9746 186.277C19.0522 186.317 19.1369 186.342 19.224 186.349C19.3111 186.357 19.3987 186.347 19.482 186.32C36.6104 180.869 53.2885 184.515 64.2637 188.534C71.2986 191.072 77.9904 194.476 84.1852 198.667C84.2986 198.749 84.4354 198.794 84.5758 198.794V198.794Z" fill="#3F3D56"/>
<path d="M115.03 122.944C115.04 122.804 115.006 122.664 114.932 122.544C114.858 122.425 114.748 122.332 114.617 122.279C114.487 122.226 114.344 122.216 114.207 122.249C114.071 122.283 113.948 122.359 113.858 122.466C109.154 128.439 105.211 134.973 102.12 141.918C97.2368 152.765 92.3158 169.439 96.6074 187.282C96.6277 187.367 96.6645 187.447 96.7158 187.518C96.7672 187.589 96.832 187.649 96.9065 187.695C96.9811 187.741 97.0641 187.771 97.1505 187.785C97.237 187.799 97.3253 187.795 97.4104 187.775C97.4955 187.754 97.5757 187.717 97.6464 187.666C97.7172 187.614 97.7771 187.549 97.8227 187.474C97.8683 187.4 97.8987 187.317 97.9122 187.23C97.9256 187.144 97.9219 187.055 97.9012 186.97C93.6978 169.494 98.5355 153.122 103.334 142.464C106.372 135.63 110.249 129.201 114.875 123.324C114.966 123.217 115.02 123.084 115.03 122.944Z" fill="#3F3D56"/>
</g>
<g clip-path="url(#clip1_537_108)">
<path d="M606.665 306.003H432.917C421.081 306.003 409.73 310.705 401.361 319.074C392.992 327.443 388.291 338.794 388.291 350.629V425.003H402.291V383.964C402.291 372.128 406.992 360.778 415.361 352.409C423.73 344.04 435.081 339.338 446.917 339.338H592.665C604.5 339.338 615.851 344.04 624.22 352.409C632.589 360.778 637.291 372.128 637.291 383.964V425.003H651.291V350.629C651.291 338.794 646.589 327.443 638.22 319.074C629.851 310.705 618.5 306.003 606.665 306.003V306.003Z" fill="#2F2E41"/>
<path d="M557.791 318.003C582.92 318.003 603.291 315.093 603.291 311.503C603.291 307.914 582.92 305.003 557.791 305.003C532.662 305.003 512.291 307.914 512.291 311.503C512.291 315.093 532.662 318.003 557.791 318.003Z" fill="#51506A"/>
<path d="M592.187 313.133H531.583C516.623 298.795 505.926 284.977 514.49 273.507C514.49 270.21 515.799 267.048 518.131 264.717C520.462 262.385 523.624 261.076 526.921 261.076H596.849C600.146 261.076 603.308 262.385 605.64 264.717C607.971 267.048 609.281 270.21 609.281 273.507C612.542 286.577 606.716 299.787 592.187 313.133Z" fill="#2F2E41"/>
<path d="M581.303 245.426C580.728 245.452 580.159 245.301 579.673 244.993C579.187 244.685 578.807 244.235 578.584 243.704C578.362 243.173 578.309 242.587 578.431 242.024C578.554 241.462 578.846 240.95 579.269 240.56L579.461 239.795C579.436 239.734 579.41 239.672 579.385 239.611C578.806 238.243 577.835 237.076 576.595 236.258C575.354 235.44 573.9 235.006 572.414 235.012C570.928 235.017 569.477 235.462 568.243 236.289C567.009 237.117 566.047 238.29 565.478 239.663C563.204 245.141 560.308 250.629 559.595 256.421C559.281 258.981 559.413 261.576 559.986 264.091C554.644 252.438 551.87 239.772 551.852 226.953C551.851 223.736 552.03 220.521 552.387 217.324C552.683 214.703 553.093 212.101 553.618 209.518C556.481 195.5 562.629 182.361 571.556 171.18C575.877 168.823 579.371 165.198 581.568 160.793C582.364 159.21 582.926 157.52 583.238 155.775C582.75 155.839 581.4 148.416 581.768 147.961C581.088 146.93 579.873 146.418 579.131 145.412C575.441 140.41 570.358 141.283 567.705 148.081C562.036 150.942 561.981 155.686 565.459 160.25C567.672 163.153 567.976 167.081 569.918 170.19C569.718 170.445 569.511 170.693 569.311 170.949C565.659 175.644 562.477 180.686 559.809 186.003C560.457 180.047 559.683 174.022 557.549 168.424C555.386 163.207 551.333 158.813 547.763 154.302C543.475 148.885 534.683 151.249 533.927 158.117C533.92 158.183 533.913 158.25 533.906 158.316C534.436 158.615 534.955 158.933 535.463 159.269C536.101 159.695 536.595 160.304 536.881 161.016C537.167 161.728 537.231 162.51 537.065 163.259C536.899 164.008 536.511 164.689 535.951 165.214C535.391 165.738 534.686 166.082 533.928 166.199L533.85 166.211C534.039 168.121 534.373 170.015 534.849 171.876C530.269 189.586 540.156 196.036 554.273 196.326C554.585 196.486 554.888 196.645 555.2 196.797C552.519 204.394 550.838 212.307 550.198 220.337C549.836 225.074 549.857 229.833 550.262 234.567L550.238 234.4C549.215 229.135 546.407 224.385 542.288 220.952C536.169 215.926 527.526 214.075 520.925 210.035C520.224 209.585 519.408 209.345 518.574 209.343C517.741 209.341 516.924 209.577 516.22 210.024C515.517 210.471 514.955 211.11 514.603 211.865C514.25 212.621 514.121 213.461 514.231 214.287C514.24 214.346 514.249 214.405 514.258 214.464C515.242 214.865 516.2 215.326 517.126 215.846C517.657 216.145 518.176 216.463 518.683 216.799C519.321 217.225 519.816 217.834 520.102 218.546C520.388 219.258 520.452 220.04 520.286 220.789C520.12 221.538 519.731 222.219 519.172 222.744C518.612 223.268 517.906 223.612 517.148 223.729L517.07 223.74C517.014 223.748 516.967 223.756 516.911 223.764C518.592 227.779 520.951 231.473 523.886 234.687C526.75 250.147 539.048 251.614 552.204 247.112H552.212C553.655 253.384 555.746 259.49 558.452 265.33H580.745C580.825 265.082 580.897 264.826 580.969 264.579C578.905 264.708 576.834 264.585 574.8 264.211C576.454 262.182 578.108 260.136 579.762 258.107C579.799 258.069 579.834 258.029 579.866 257.987C580.705 256.948 581.552 255.917 582.391 254.879L582.391 254.877C582.436 251.693 582.071 248.517 581.304 245.426L581.303 245.426Z" fill="#2F2E41"/>
<path d="M404.657 312.975L412.653 305.365L387.106 270.905L375.306 282.136L404.657 312.975Z" fill="#FFB6B6"/>
<path d="M396.836 309.982L408.884 297.062L414.093 302.535L434.219 299.364C435.213 299.207 436.231 299.372 437.125 299.835C438.018 300.298 438.74 301.034 439.186 301.937C439.631 302.839 439.777 303.86 439.601 304.851C439.425 305.842 438.936 306.75 438.207 307.444L423 321.918L415.227 318.999L419.356 325.387L413.622 330.844L396.836 309.982Z" fill="#51506A"/>
<path d="M403.291 287.004L392.291 302.004C382.981 297.044 353.267 277.362 330.507 267.052C315.797 260.372 304.447 255.292 304.447 255.292C304.447 255.292 302.917 257.462 300.477 260.872C291.547 273.372 270.457 302.462 268.447 301.382C265.897 300.012 263.007 302.462 263.367 307.482C263.627 311.142 257.437 313.812 254.057 315.002C252.787 315.442 251.917 315.682 251.917 315.682C251.337 316.052 250.757 316.422 250.187 316.772C231.677 328.082 209.987 324.892 195.087 312.772C189.75 308.467 185.397 303.068 182.321 296.939C179.246 290.811 177.519 284.094 177.257 277.242L175.927 246.242L220.927 244.242L228.937 259.452L243.147 247.872L274.257 222.522L285.617 213.262C285.617 213.262 285.317 213.222 285.677 211.862C287.1 211.091 288.589 210.448 290.127 209.942C290.387 209.852 290.647 209.772 290.907 209.702C305.557 205.382 316.667 216.622 316.667 216.622C316.667 216.622 384.621 262.574 387.291 263.004C389.961 263.444 391.497 267.732 391.817 268.752C392.127 269.712 396.381 275.134 398.291 275.004C404.251 274.614 403.291 287.004 403.291 287.004Z" fill="#51506A"/>
<path d="M268.388 194.165C267.134 194.582 265.987 195.27 265.029 196.18C264.071 197.09 263.327 198.201 262.848 199.432L221.584 199.205L199.633 168.844L183.317 176.067L209.873 224.182L268.004 211.214L267.97 211.093C269.317 211.616 270.769 211.807 272.205 211.651C273.641 211.494 275.018 210.995 276.22 210.194C277.422 209.393 278.414 208.314 279.111 207.049C279.809 205.784 280.192 204.37 280.227 202.926C280.263 201.482 279.95 200.051 279.316 198.753C278.682 197.455 277.745 196.329 276.583 195.47C275.422 194.611 274.071 194.043 272.645 193.816C271.218 193.589 269.758 193.709 268.388 194.165L268.388 194.165Z" fill="#FFB6B6"/>
<path d="M191.924 148.155L191.067 148.28C186.592 148.931 182.549 151.308 179.804 154.903C177.059 158.498 175.831 163.024 176.382 167.513C177.045 172.822 177.431 177.574 176.851 178.519C175.422 180.845 174.876 182.794 177.678 183.085C180.481 183.377 174.64 181.661 183.568 183.154C192.497 184.647 190.918 179.903 198.191 179.589C205.464 179.276 210.372 181.153 212.663 177.054C214.954 172.956 221.342 172.788 217.834 168.76C214.325 164.733 213.375 168.211 210.532 159.672C210.504 159.587 210.475 159.502 210.447 159.417C209.164 155.67 206.608 152.491 203.224 150.434C199.839 148.376 195.841 147.57 191.924 148.155V148.155Z" fill="#AB0000"/>
<path d="M167.833 137.554C166.772 138.589 165.642 139.551 164.453 140.434C164.103 140.704 163.753 140.954 163.403 141.184C153.253 148.054 143.233 145.114 135.423 137.944C123.353 126.844 116.573 105.614 122.833 94.8342C136.853 77.7342 155.053 81.4042 166.113 93.0242C176.853 104.294 180.873 123.054 167.833 137.554Z" fill="#2F2E41"/>
<path d="M211.897 151.792C211.037 151.242 210.177 150.712 209.297 150.202C208.907 149.672 208.507 149.152 208.097 148.642L211.897 151.792Z" fill="#2F2E41"/>
<path d="M187.377 106.432C200.694 116.563 215.525 124.626 218.321 135.774C218.321 135.774 216.646 118.257 224.457 121.577C237.582 127.156 233.141 96.8164 229.461 91.8552C223.327 83.5865 202.642 78.8882 202.642 78.8882L187.968 86.9435L187.377 106.432Z" fill="#2F2E41"/>
<path d="M248.704 422.843C248.977 423.636 249.493 424.323 250.181 424.804C250.868 425.285 251.689 425.536 252.528 425.521L268.912 425.1C269.757 425.083 270.574 424.794 271.241 424.275C271.908 423.756 272.388 423.035 272.611 422.22L274.93 397.427C275.753 397.8 276.648 397.984 277.551 397.965C278.336 397.947 279.11 397.773 279.827 397.455C280.545 397.137 281.194 396.681 281.735 396.112C282.276 395.543 282.7 394.873 282.983 394.141C283.265 393.408 283.4 392.627 283.381 391.842C283.361 391.057 283.187 390.284 282.868 389.566C282.549 388.848 282.092 388.201 281.523 387.66C280.954 387.119 280.283 386.696 279.55 386.414C278.817 386.133 278.036 385.998 277.251 386.019C276.89 386.018 276.53 386.055 276.177 386.13C275.794 385.715 275.327 385.385 274.808 385.161C274.289 384.937 273.728 384.824 273.163 384.83L247.96 385.481C247.751 385.488 247.543 385.514 247.338 385.558C246.786 385.661 246.261 385.881 245.801 386.204C245.341 386.526 244.955 386.944 244.669 387.428C244.383 387.912 244.205 388.452 244.146 389.011C244.086 389.57 244.147 390.136 244.324 390.669L248.704 422.843ZM275.405 395.743L277.055 389.835C277.243 389.153 277.247 388.433 277.068 387.748C277.148 387.748 277.219 387.71 277.299 387.71C278.43 387.687 279.524 388.113 280.341 388.895C281.158 389.678 281.632 390.752 281.659 391.883C281.685 393.014 281.262 394.109 280.482 394.929C279.703 395.749 278.63 396.226 277.499 396.255C276.767 396.278 276.044 396.101 275.405 395.743V395.743Z" fill="#51506A"/>
<path d="M247.338 385.558C247.875 388.628 253.912 390.786 261.171 390.411C267.846 390.103 273.304 387.759 274.304 384.982C273.933 384.872 273.549 384.821 273.163 384.83L247.96 385.48C247.751 385.488 247.543 385.514 247.338 385.558V385.558Z" fill="white"/>
<path d="M210.566 118.726C223.269 118.726 233.566 108.428 233.566 95.7258C233.566 83.0233 223.269 72.7258 210.566 72.7258C197.864 72.7258 187.566 83.0233 187.566 95.7258C187.566 108.428 197.864 118.726 210.566 118.726Z" fill="#FFB6B6"/>
<path d="M202.283 86.9255L201.398 90.8129L216.87 94.3351C216.883 93.5489 217.06 92.774 217.387 92.0591C217.714 91.3442 218.186 90.7046 218.772 90.1806C218.439 91.7049 218.477 93.2871 218.883 94.7935C227.227 99.4756 226.748 101.134 233.491 99.9404C234.405 100.148 235.364 99.985 236.157 99.486C236.95 98.987 237.513 98.1935 237.721 97.2798V97.2798C240.434 85.3613 241.325 73.1798 229.465 70.2214C226.583 69.5006 223.585 69.3626 220.648 69.8155C217.711 70.2684 214.894 71.3031 212.362 72.8589C209.831 74.4147 207.635 76.4604 205.904 78.8758C204.173 81.2913 202.942 84.028 202.283 86.9255Z" fill="#2F2E41"/>
<path d="M319.731 231.533C319.676 231.467 319.613 231.409 319.543 231.36C319.371 231.16 319.162 230.997 318.927 230.878L317.244 229.977L306.07 217.572C305.423 217.235 304.671 217.163 303.972 217.371L303.943 217.38L299.157 218.86L295.04 220.138L289.29 221.92L250.124 234.048L224.379 242.019C223.683 242.239 223.102 242.724 222.759 243.369C222.417 244.013 222.342 244.767 222.55 245.467C222.671 245.852 222.871 246.208 223.138 246.511L223.957 247.423L225.675 249.337L229.656 257.588L230.761 258.82C231.113 259.213 231.569 259.497 232.077 259.639C232.585 259.782 233.122 259.777 233.627 259.625L318.441 236.04C318.882 235.897 319.281 235.648 319.603 235.315C319.924 234.982 320.159 234.575 320.287 234.13C320.414 233.685 320.43 233.215 320.333 232.762C320.236 232.309 320.029 231.887 319.731 231.533L319.731 231.533Z" fill="#CCCCCC"/>
<path d="M314.695 108.828L313.053 109.094C312.603 109.168 312.2 109.418 311.934 109.788L311.21 110.8L304.683 127.122C304.417 127.495 304.31 127.959 304.386 128.411L305.151 133.061L302.26 216.067C302.333 216.496 302.564 216.882 302.907 217.151L315.58 234.103L315.876 234.338L316.514 234.838C316.841 235.09 317.247 235.219 317.661 235.202L318.738 235.151C318.982 235.139 319.221 235.075 319.44 234.964C319.658 234.853 319.85 234.697 320.003 234.506C320.158 234.316 320.27 234.096 320.332 233.86C320.394 233.623 320.404 233.376 320.363 233.136L316.686 110.248C316.612 109.796 316.361 109.393 315.989 109.126C315.618 108.86 315.155 108.752 314.704 108.826L314.695 108.828Z" fill="#CCCCCC"/>
<path d="M311.945 115.277L306.163 132.891L303.927 203.244L312.927 211.244L311.945 115.277Z" fill="#AB0000"/>
<path d="M197.112 124.415L189.722 120.951L182.446 133.612C182.446 133.612 162.904 161.498 162.62 181.617C162.337 201.735 165.805 207.717 165.805 207.717C165.805 207.717 157.379 214.016 161.592 217.867C165.805 221.717 175.132 223.379 167.968 225.048C160.805 226.717 162.62 243.617 170.62 246.617C178.62 249.617 221.585 249.59 221.585 249.59C221.198 248.28 221.17 246.89 221.502 245.565C221.834 244.241 222.515 243.029 223.474 242.056C226.805 238.717 229.805 241.113 226.805 235.915C223.805 230.717 218.805 233.717 222.805 226.717C226.805 219.717 226.804 217.625 226.804 217.625C226.804 217.625 224.659 168.268 212.377 151.432L212.638 150.969C213.046 145.491 211.78 140.018 209.007 135.276C206.234 130.534 202.086 126.746 197.112 124.415V124.415Z" fill="#AB0000"/>
<path d="M206.067 102.435C206.825 99.115 208.31 96.0044 210.415 93.3278C212.52 90.6511 215.194 88.475 218.242 86.9566C221.29 85.4382 224.637 84.6154 228.042 84.5473C231.447 84.4793 234.824 85.1678 237.931 86.5632C236.854 83.3874 234.677 80.702 231.792 78.9931L214.377 71.4323C205.786 69.4767 192.188 63.9262 185.984 69.2415C180.267 74.1244 183.049 83.6826 177.785 89.0356C172.016 94.902 171.526 101.839 173.162 105.828C175.055 110.444 178.842 116.741 183.567 118.104C183.813 116.48 184.623 114.994 185.856 113.908C185.515 115.456 185.485 117.056 185.768 118.616L214.377 141.432C211.705 139.108 209.428 133.12 207.86 126.376C206.932 122.384 201.395 120.983 205.886 114.208C210.377 107.432 205.458 105.114 206.067 102.435Z" fill="#2F2E41"/>
<path d="M195.377 332.432H205.377V411.432C205.377 412.758 204.85 414.03 203.912 414.968C202.974 415.905 201.703 416.432 200.377 416.432C199.051 416.432 197.779 415.905 196.841 414.968C195.903 414.03 195.377 412.758 195.377 411.432V332.432Z" fill="#2F2E41"/>
<path d="M166.356 424.656L180.348 406.097C184.788 400.209 189.045 394.086 193.735 388.406C195.402 386.388 197.338 384.302 199.803 383.692C200.774 383.443 201.797 383.486 202.743 383.817C203.862 384.207 204.893 384.812 205.781 385.596C207.843 387.506 209.573 389.745 210.9 392.222C212.646 395.256 214.261 398.369 215.765 401.53C219.172 408.731 221.943 416.217 224.046 423.901C225.072 427.618 230.862 426.04 229.832 422.306C227.75 414.79 225.069 407.452 221.815 400.364C220.23 396.903 218.506 393.511 216.643 390.188C215.09 387.237 213.134 384.517 210.83 382.106C208.5 379.644 205.395 378.057 202.035 377.609C198.43 377.216 195.086 378.841 192.409 381.123C189.72 383.416 187.699 386.448 185.587 389.249L178.144 399.12L161.175 421.627C160.199 422.922 160.968 424.982 162.251 425.732C162.942 426.115 163.755 426.216 164.519 426.016C165.283 425.815 165.941 425.328 166.356 424.656H166.356Z" fill="#2F2E41"/>
<path d="M262.377 224.432C261.055 224.431 259.75 224.721 258.554 225.283C257.358 225.844 256.3 226.663 255.457 227.68L216.377 214.432L205.139 178.692L187.377 180.393L197.377 234.432L256.629 240.487L256.634 240.361C257.747 241.283 259.064 241.923 260.476 242.228C261.888 242.533 263.353 242.494 264.746 242.114C266.14 241.734 267.421 241.024 268.483 240.044C269.544 239.064 270.354 237.843 270.843 236.484C271.333 235.125 271.489 233.668 271.297 232.236C271.105 230.805 270.571 229.44 269.741 228.258C268.911 227.076 267.808 226.112 266.526 225.446C265.244 224.78 263.821 224.432 262.377 224.432L262.377 224.432Z" fill="#FFB6B6"/>
<path d="M204.358 156.627L203.506 156.476C199.054 155.68 194.467 156.658 190.727 159.202C186.988 161.746 184.393 165.653 183.498 170.086C182.45 175.333 181.316 179.963 180.467 180.677C178.377 182.432 177.243 184.109 179.81 185.271C182.377 186.432 177.377 182.96 185.377 187.196C193.377 191.432 193.377 186.432 200.377 188.432C207.377 190.432 211.44 193.763 214.908 190.598C218.377 187.432 224.491 189.291 222.434 184.362C220.377 179.432 218.377 182.432 218.377 173.432C218.377 173.342 218.376 173.253 218.376 173.163C218.342 169.203 216.921 165.38 214.36 162.359C211.799 159.337 208.26 157.309 204.358 156.627V156.627Z" fill="#AB0000"/>
<path d="M479.791 327.003C501.606 327.003 519.291 324.093 519.291 320.503C519.291 316.914 501.606 314.003 479.791 314.003C457.976 314.003 440.291 316.914 440.291 320.503C440.291 324.093 457.976 327.003 479.791 327.003Z" fill="#51506A"/>
<path d="M519.496 282.963C519.511 292.508 516.06 301.733 509.785 308.924C508.221 310.729 506.493 312.384 504.624 313.869C501.788 316.147 498.648 318.02 495.296 319.432H464.576C461.224 318.02 458.085 316.147 455.249 313.869C453.379 312.384 451.651 310.729 450.087 308.924C448.25 306.81 446.641 304.508 445.285 302.057C442.459 296.929 440.808 291.239 440.448 285.395C440.089 279.552 441.031 273.701 443.206 268.266C445.381 262.831 448.736 257.946 453.028 253.964C457.319 249.982 462.441 247.002 468.024 245.24C473.607 243.477 479.512 242.975 485.312 243.771C491.112 244.566 496.663 246.639 501.565 249.84C506.467 253.041 510.598 257.29 513.659 262.28C516.72 267.27 518.636 272.878 519.267 278.698C519.421 280.115 519.498 281.539 519.496 282.963V282.963Z" fill="#3F3D56"/>
<path d="M509.785 308.924C508.221 310.729 506.493 312.384 504.624 313.869H455.249C453.379 312.384 451.651 310.729 450.087 308.924H509.785Z" fill="#AB0000"/>
<path d="M519.267 278.698C511.003 291.524 495.791 301.476 477.272 304.499C466.571 306.319 455.586 305.48 445.284 302.057C442.459 296.929 440.808 291.239 440.448 285.395C440.089 279.552 441.031 273.701 443.206 268.266C445.381 262.831 448.736 257.946 453.028 253.964C457.319 249.982 462.441 247.002 468.024 245.24C473.607 243.477 479.511 242.975 485.312 243.771C491.112 244.566 496.663 246.639 501.565 249.84C506.467 253.041 510.598 257.29 513.659 262.28C516.72 267.27 518.636 272.878 519.267 278.698V278.698Z" fill="#AB0000"/>
<path d="M390.465 339.115L399.231 332.407L377.528 295.405L364.591 305.306L390.465 339.115Z" fill="#FFB6B6"/>
<path d="M383.01 335.3L396.374 323.748L400.966 329.747L421.316 328.753C422.321 328.704 423.316 328.977 424.155 329.534C424.993 330.09 425.633 330.899 425.979 331.844C426.325 332.789 426.36 333.82 426.078 334.786C425.797 335.752 425.214 336.603 424.415 337.215L407.743 349.974L400.328 346.238L403.747 353.032L397.461 357.842L383.01 335.3Z" fill="#51506A"/>
<path d="M391.892 313.147L379.347 326.881C370.623 320.951 343.191 298.196 321.668 285.504C307.759 277.285 297.02 271.016 297.02 271.016C297.02 271.016 295.266 273.01 292.474 276.138C282.255 287.608 258.166 314.268 256.284 312.979C253.895 311.343 250.759 313.469 250.579 318.499C250.445 322.166 244.004 324.156 240.516 324.977C239.206 325.278 238.315 325.423 238.315 325.423C237.699 325.729 237.083 326.035 236.478 326.322C216.862 335.581 195.639 330.083 182.125 316.435C177.281 311.581 173.532 305.747 171.132 299.324C168.732 292.901 167.735 286.038 168.209 279.197L170.212 248.233L215.167 251.072L221.499 267.053L236.869 257.064L270.519 235.197L282.807 227.209C282.807 227.209 282.513 227.137 283.017 225.824C284.514 225.21 286.064 224.73 287.647 224.392C287.915 224.33 288.182 224.279 288.448 224.237C303.477 221.513 313.317 233.88 313.317 233.88C313.317 233.88 375.95 286.855 378.559 287.569C381.166 288.293 382.233 292.722 382.442 293.77C382.647 294.758 386.295 300.604 388.208 300.68C394.176 300.932 391.892 313.147 391.892 313.147Z" fill="#51506A"/>
<path d="M189.403 348.334C179.993 328.194 111.373 347.664 106.863 303.654C105.623 290.844 115.223 279.774 124.343 270.694C189.213 225.834 62.5528 192.684 111.763 148.394C119.236 144.041 127.172 140.536 135.423 137.944C146.813 134.594 155.313 135.214 161.753 138.714C162.691 139.226 163.593 139.801 164.453 140.434C192.673 161.284 175.603 245.524 205.223 271.684C216.503 280.584 266.393 297.824 274.403 311.264C274.614 311.626 274.805 312 274.973 312.384C277.714 317.659 215.885 332.029 220.973 344.384C227.973 361.384 188.798 386.169 189.403 348.334Z" fill="#2F2E41"/>
<path d="M51 425.817C50.9996 425.973 51.03 426.128 51.0897 426.273C51.1493 426.417 51.2369 426.549 51.3475 426.659C51.4581 426.77 51.5895 426.858 51.7341 426.917C51.8787 426.977 52.0337 427.007 52.1901 427.007H704.48C704.796 427.007 705.098 426.882 705.322 426.658C705.545 426.435 705.67 426.133 705.67 425.817C705.67 425.501 705.545 425.199 705.322 424.975C705.098 424.752 704.796 424.627 704.48 424.627H52.19C52.0336 424.626 51.8787 424.657 51.7341 424.717C51.5895 424.776 51.4581 424.864 51.3475 424.974C51.2369 425.085 51.1493 425.216 51.0897 425.361C51.03 425.506 50.9996 425.661 51 425.817Z" fill="#CCCCCC"/>
<path d="M243.973 242.839C243.973 249.191 249.336 261.384 217.973 261.384C186.61 261.384 130.398 249.191 130.398 242.839C130.398 236.488 155.823 231.339 187.185 231.339C218.548 231.339 243.973 236.488 243.973 242.839Z" fill="#2F2E41"/>
</g>
<defs>
<clipPath id="clip0_537_108">
<rect width="722.452" height="364.196" fill="white"/>
</clipPath>
<clipPath id="clip1_537_108">
<rect width="654.67" height="360.007" fill="white" transform="translate(51 67)"/>
</clipPath>
</defs>
</svg>
