<svg width="816" height="646" viewBox="0 0 816 646" fill="none" xmlns="http://www.w3.org/2000/svg">
<g clip-path="url(#clip0_508_23)">
<path d="M151.867 487.404L165.74 481.93C179.686 476.386 207.432 465.439 235.105 466.351C262.777 467.263 290.375 480.175 318.048 486.14C345.72 492.105 373.466 491.123 401.138 489.509C428.81 487.895 456.409 485.509 484.081 479.684C511.753 473.86 539.499 464.456 567.171 473.93C594.844 483.404 622.442 511.754 650.114 516.035C677.787 520.386 705.533 500.737 733.205 480.596C760.877 460.526 788.475 439.895 802.201 429.649L816 419.333V646H802.201C788.475 646 760.877 646 733.205 646C705.533 646 677.787 646 650.114 646C622.442 646 594.844 646 567.171 646C539.499 646 511.753 646 484.081 646C456.409 646 428.81 646 401.138 646C373.466 646 345.72 646 318.048 646C290.375 646 262.777 646 235.105 646C207.432 646 179.686 646 165.74 646H151.867V487.404Z" fill="url(#paint0_linear_508_23)"/>
<path d="M318.5 107.893C334.18 107.893 346.891 95.4884 346.891 80.187C346.891 64.8855 334.18 52.4813 318.5 52.4813C302.82 52.4813 290.109 64.8855 290.109 80.187C290.109 95.4884 302.82 107.893 318.5 107.893Z" fill="#FD6584"/>
<path d="M382.041 67.0679C381.241 64.5059 379.69 62.2283 377.579 60.5155C375.469 58.8028 372.892 57.7297 370.164 57.4282C370.101 57.423 370.037 57.423 369.973 57.4282C369.896 57.4049 369.818 57.3876 369.739 57.3764C360.233 56.1727 349.664 59.0988 342.55 65.4699C339.909 67.7977 337.798 70.6396 336.351 73.8125C335.032 72.0548 333.295 70.6373 331.288 69.6826C329.282 68.728 327.067 68.265 324.836 68.3338C321.958 68.5194 319.209 69.5666 316.964 71.3325C314.718 73.0985 313.086 75.4972 312.289 78.2017C312.201 78.5321 312.225 78.8813 312.357 79.1973C312.489 79.5133 312.723 79.7792 313.022 79.9553C313.877 80.6691 314.894 81.1741 315.989 81.4288C318.339 81.9165 320.71 82.3626 323.081 82.7673C327.717 83.5559 332.378 84.1958 337.064 84.6869C340.158 85.0086 343.259 85.2646 346.368 85.4548C352.79 85.8491 359.244 85.9425 365.677 85.7453C368.867 85.6416 371.929 85.5378 374.843 84.1681C376.966 83.1492 378.78 81.6078 380.106 79.6959C381.355 77.8569 382.175 75.7732 382.509 73.5914C382.844 71.4097 382.684 69.1829 382.041 67.0679Z" fill="#E6E6E6"/>
<path d="M323.634 107.432C323.58 106.271 323.38 105.121 323.039 104.008C322.234 101.446 320.681 99.1691 318.569 97.4567C316.457 95.7443 313.879 94.6708 311.151 94.3681C311.091 94.3629 311.03 94.3629 310.97 94.3681C310.89 94.3458 310.808 94.3285 310.726 94.3162C305.464 93.6873 300.126 94.2228 295.106 95.883C287.386 98.4045 280.613 103.489 277.348 110.752C276.028 108.993 274.289 107.575 272.28 106.621C270.272 105.666 268.055 105.204 265.822 105.274C262.945 105.459 260.196 106.506 257.95 108.272C255.705 110.038 254.072 112.437 253.275 115.142C253.192 115.472 253.219 115.819 253.351 116.134C253.482 116.449 253.713 116.716 254.009 116.895C254.865 117.607 255.882 118.112 256.975 118.369C259.336 118.856 261.696 119.302 264.078 119.707C268.714 120.496 273.372 121.136 278.05 121.627C287.555 122.623 297.119 122.976 306.674 122.685C309.854 122.581 312.927 122.478 315.84 121.108C317.96 120.089 319.771 118.547 321.093 116.636C322.957 113.925 323.85 110.689 323.634 107.432Z" fill="#E6E6E6"/>
<path d="M533.836 457.071H507.955V62.8003C506.211 61.5447 504.457 60.2996 502.681 59.0855C502.33 58.8469 501.979 58.6082 501.628 58.3696C481.159 44.3975 459.016 32.9191 435.693 24.1898L430.674 91.74L430.673 91.7441H398.381V12.8692C396.276 12.3607 394.171 11.8834 392.044 11.4372V91.7441H270.104V9.35159C267.988 9.73552 265.872 10.1298 263.767 10.5553V91.7441H230.411L230.411 91.74L225.147 20.9005C202.449 28.5783 180.757 38.8386 160.52 51.4693C159.818 51.9051 159.116 52.3409 158.414 52.7974C157 53.6898 155.586 54.6029 154.193 55.5264V457.071H117.753C113.091 457.068 108.5 458.181 104.381 460.313C100.262 462.445 96.7427 465.53 94.1303 469.299C91.5179 473.067 89.8926 477.403 89.397 481.927C88.9014 486.45 89.5506 491.024 91.2877 495.246C91.8089 496.522 92.431 497.757 93.1485 498.94C94.0751 500.482 95.1504 501.934 96.3597 503.277C99.0309 506.248 102.321 508.628 106.011 510.258C109.7 511.888 113.703 512.731 117.753 512.73H533.836C541.399 512.73 548.653 509.798 554.001 504.579C559.349 499.36 562.354 492.281 562.354 484.9C562.354 477.52 559.349 470.441 554.001 465.222C548.653 460.003 541.399 457.071 533.836 457.071L533.836 457.071ZM423.72 185.524L403.591 457.071H257.493L237.365 185.524H423.72ZM430.216 97.9273L425.251 164.913H398.381V97.9273H430.216ZM392.044 97.9273V164.913H343.523C342.551 163.052 341.071 161.49 339.247 160.399C337.422 159.308 335.324 158.73 333.185 158.73H326.848C324.708 158.73 322.61 159.308 320.786 160.399C318.962 161.49 317.482 163.052 316.51 164.913H270.104V97.9273H392.044ZM263.767 164.913H235.834L230.868 97.9273H263.767V164.913Z" fill="#F2F2F2"/>
<path d="M91.7533 501.945C100.991 512.626 110.982 522.664 121.653 531.985L525.263 533.022C535.935 523.701 545.926 513.664 555.163 502.983L91.7533 501.945Z" fill="#3F3D56"/>
<path d="M295.578 401.492V507.912H371.977V401.492C371.978 400.726 371.728 399.981 371.263 399.364C370.798 398.748 370.143 398.293 369.393 398.067C369.04 397.954 368.67 397.897 368.298 397.901H299.268C298.784 397.9 298.305 397.993 297.858 398.173C297.41 398.353 297.004 398.617 296.661 398.95C296.318 399.284 296.046 399.68 295.86 400.116C295.675 400.552 295.579 401.019 295.578 401.492ZM325.394 438.058C325.414 435.96 326.282 433.955 327.809 432.479C329.336 431.002 331.399 430.174 333.549 430.174C335.699 430.174 337.762 431.002 339.289 432.479C340.816 433.955 341.684 435.96 341.705 438.058V450.406C341.694 452.51 340.83 454.523 339.301 456.007C337.773 457.491 335.705 458.324 333.549 458.324C331.393 458.324 329.325 457.491 327.797 456.007C326.269 454.523 325.405 452.51 325.394 450.406V438.058Z" fill="#2F2E41"/>
<path d="M295.345 504.508V514.77C295.346 515.302 295.563 515.812 295.947 516.188C296.331 516.565 296.852 516.779 297.397 516.783H370.159C370.704 516.781 371.226 516.568 371.611 516.19C371.995 515.813 372.211 515.303 372.211 514.77V504.508H295.345Z" fill="#3F3D56"/>
<path d="M175.393 241.156V435.464C175.395 437.94 176.404 440.314 178.198 442.065C179.992 443.816 182.425 444.801 184.963 444.803H480.03C482.568 444.801 485.001 443.816 486.795 442.065C488.589 440.314 489.598 437.94 489.6 435.464V241.156C489.594 238.682 488.583 236.311 486.79 234.563C484.996 232.814 482.565 231.831 480.03 231.828H184.963C182.427 231.831 179.997 232.814 178.203 234.563C176.41 236.311 175.399 238.682 175.393 241.156Z" fill="#3F3D56"/>
<path d="M182.315 243.574V433.067C182.317 434.39 182.857 435.658 183.816 436.594C184.774 437.529 186.074 438.056 187.43 438.058H477.574C478.93 438.056 480.229 437.529 481.188 436.594C482.147 435.658 482.686 434.39 482.688 433.067V243.574C482.688 242.249 482.15 240.979 481.191 240.041C480.232 239.103 478.931 238.575 477.574 238.572H187.43C186.072 238.575 184.771 239.103 183.813 240.041C182.854 240.979 182.315 242.249 182.315 243.574Z" fill="#AB0000"/>
<path d="M241.477 519.201C241.773 519.563 242.148 519.854 242.575 520.053C243.003 520.253 243.471 520.355 243.944 520.353H416.561C417.034 520.352 417.5 520.249 417.926 520.051C418.352 519.852 418.727 519.564 419.024 519.206C419.322 518.848 419.534 518.43 419.645 517.982C419.756 517.535 419.763 517.068 419.666 516.617L416.987 504.197C416.876 503.69 416.637 503.219 416.291 502.826C415.946 502.433 415.505 502.13 415.009 501.945C414.65 501.808 414.268 501.737 413.882 501.738H246.613C246.228 501.737 245.845 501.808 245.486 501.945C244.99 502.13 244.549 502.433 244.204 502.826C243.859 503.219 243.619 503.69 243.508 504.197L240.829 516.617C240.733 517.068 240.742 517.534 240.854 517.981C240.967 518.428 241.179 518.845 241.477 519.201Z" fill="#2F2E41"/>
<path d="M246.613 504.332C246.561 504.332 246.509 504.34 246.459 504.359C246.375 504.387 246.299 504.435 246.238 504.499C246.177 504.562 246.134 504.64 246.111 504.724L243.43 517.152C243.416 517.224 243.418 517.298 243.437 517.369C243.455 517.44 243.49 517.506 243.538 517.562L243.55 517.576C243.596 517.635 243.656 517.682 243.725 517.714C243.793 517.746 243.869 517.761 243.944 517.759H416.561C416.637 517.76 416.711 517.744 416.78 517.712C416.848 517.681 416.908 517.635 416.955 517.577C417.005 517.522 417.042 517.456 417.061 517.384C417.081 517.312 417.083 517.237 417.068 517.165L414.386 504.73C414.366 504.649 414.326 504.574 414.27 504.511C414.214 504.448 414.142 504.399 414.063 504.369C414.005 504.345 413.944 504.332 413.882 504.332H246.613Z" fill="white"/>
<path d="M196.758 264.676H468.245C468.527 264.67 468.796 264.556 468.993 264.359C469.191 264.162 469.301 263.898 469.301 263.622C469.301 263.347 469.191 263.082 468.993 262.885C468.796 262.688 468.527 262.575 468.245 262.569H196.758C196.476 262.575 196.208 262.688 196.01 262.885C195.813 263.082 195.702 263.347 195.702 263.622C195.702 263.898 195.813 264.162 196.01 264.359C196.208 264.556 196.476 264.67 196.758 264.676Z" fill="#3F3D56"/>
<path d="M449.765 257.189C453.259 257.189 456.092 254.364 456.092 250.877C456.092 247.391 453.259 244.566 449.765 244.566C446.27 244.566 443.438 247.391 443.438 250.877C443.438 254.364 446.27 257.189 449.765 257.189Z" fill="#3F3D56"/>
<path d="M427.907 257.189C431.402 257.189 434.235 254.364 434.235 250.877C434.235 247.391 431.402 244.566 427.907 244.566C424.413 244.566 421.58 247.391 421.58 250.877C421.58 254.364 424.413 257.189 427.907 257.189Z" fill="#3F3D56"/>
<path d="M406.05 257.189C409.544 257.189 412.377 254.364 412.377 250.877C412.377 247.391 409.544 244.566 406.05 244.566C402.556 244.566 399.723 247.391 399.723 250.877C399.723 254.364 402.556 257.189 406.05 257.189Z" fill="#3F3D56"/>
<path d="M208.761 247.278C208.76 247.427 208.79 247.575 208.848 247.713C208.905 247.851 208.991 247.977 209.098 248.083C209.206 248.189 209.334 248.273 209.475 248.331C209.616 248.389 209.767 248.419 209.92 248.419H225.444C225.751 248.413 226.043 248.289 226.258 248.074C226.472 247.86 226.592 247.572 226.592 247.273C226.592 246.973 226.472 246.686 226.258 246.471C226.043 246.257 225.751 246.133 225.444 246.126H209.92C209.61 246.13 209.314 246.253 209.097 246.469C208.88 246.685 208.759 246.976 208.761 247.278Z" fill="#3F3D56"/>
<path d="M208.761 251.584C208.76 251.734 208.79 251.881 208.848 252.02C208.905 252.158 208.991 252.283 209.098 252.389C209.206 252.495 209.334 252.58 209.475 252.637C209.616 252.695 209.767 252.725 209.92 252.726H225.444C225.751 252.719 226.044 252.595 226.258 252.381C226.473 252.167 226.594 251.879 226.594 251.579C226.594 251.279 226.473 250.991 226.258 250.777C226.044 250.563 225.751 250.439 225.444 250.433H209.92C209.61 250.436 209.314 250.559 209.097 250.775C208.88 250.991 208.759 251.282 208.761 251.584Z" fill="#3F3D56"/>
<path d="M208.761 255.88C208.759 256.183 208.88 256.473 209.097 256.689C209.314 256.905 209.61 257.028 209.92 257.032H225.444C225.751 257.025 226.043 256.901 226.258 256.687C226.472 256.473 226.592 256.185 226.592 255.885C226.592 255.586 226.472 255.298 226.258 255.084C226.043 254.87 225.751 254.746 225.444 254.739H209.92C209.767 254.739 209.616 254.769 209.475 254.827C209.334 254.885 209.206 254.969 209.098 255.075C208.991 255.181 208.905 255.307 208.848 255.445C208.79 255.583 208.76 255.731 208.761 255.88Z" fill="#3F3D56"/>
<path d="M427.794 296.836H237.21C234.706 296.839 232.306 297.811 230.535 299.539C228.765 301.266 227.769 303.609 227.766 306.052V396.572C227.769 399.015 228.765 401.358 230.535 403.086C232.305 404.813 234.706 405.785 237.21 405.788H427.794C430.297 405.785 432.698 404.813 434.468 403.086C436.239 401.358 437.234 399.015 437.237 396.572V306.052C437.234 303.609 436.238 301.266 434.468 299.539C432.698 297.811 430.297 296.839 427.794 296.836ZM435.111 306.052V332.462H368.122V298.912H427.794C429.734 298.914 431.593 299.667 432.965 301.005C434.337 302.344 435.109 304.159 435.111 306.052H435.111ZM299.007 368.088V334.537H365.996V368.088H299.007ZM365.996 370.163V403.713H299.007V370.163H365.996ZM296.881 368.088H229.893V334.537H296.881V368.088ZM299.007 332.462V298.912H365.996V332.462H299.007ZM368.122 334.537H435.111V368.088H368.122V334.537ZM237.21 298.912H296.881V332.462H229.893V306.052C229.895 304.159 230.666 302.344 232.038 301.005C233.41 299.667 235.27 298.914 237.21 298.912V298.912ZM229.893 396.572V370.163H296.881V403.713H237.21C235.27 403.711 233.41 402.958 232.038 401.619C230.666 400.28 229.895 398.465 229.893 396.572ZM427.794 403.713H368.122V370.163H435.111V396.572C435.109 398.465 434.337 400.28 432.965 401.619C431.594 402.958 429.734 403.711 427.794 403.713H427.794Z" fill="#3F3D56"/>
<path d="M322.815 319.818C321.124 317.089 319.12 314.174 315.981 313.283C312.347 312.251 308.613 314.301 305.446 316.324C295.975 322.376 286.854 328.934 278.125 335.969L278.134 336.075L298.522 334.703C303.432 334.372 308.51 333.996 312.85 331.729C314.496 330.869 316.101 329.72 317.967 329.64C320.285 329.541 322.306 331.121 323.895 332.771C333.291 342.535 336.01 357.466 346.551 366.045C339.904 350.048 331.967 334.59 322.815 319.818Z" fill="white"/>
<path d="M380.571 402.633C379.532 401.353 379.107 401.053 378.082 399.761C369.737 389.228 361.893 378.339 354.551 367.095C349.563 359.458 344.823 351.675 340.331 343.745C338.192 339.975 336.111 336.175 334.09 332.346C332.521 329.377 330.987 326.39 329.489 323.386C329.06 322.528 328.644 321.665 328.229 320.801C327.253 318.769 326.295 316.727 325.266 314.723C324.202 312.317 322.574 310.188 320.513 308.509C319.533 307.782 318.361 307.342 317.135 307.24C315.407 307.25 313.715 307.723 312.244 308.607C301.11 314.319 290.718 321.313 281.29 329.438C271.847 337.531 263.406 346.674 256.141 356.681C255.918 356.99 255.393 356.695 255.617 356.383C256.501 355.164 257.402 353.958 258.32 352.765C269.741 337.942 283.744 325.196 299.69 315.108C302.373 313.411 305.106 311.794 307.89 310.257C309.293 309.481 310.702 308.716 312.135 307.998C313.509 307.212 315.049 306.746 316.637 306.637C322.1 306.554 324.928 312.591 326.871 316.652C327.481 317.931 328.099 319.205 328.725 320.476C331.088 325.299 333.542 330.079 336.087 334.814C337.658 337.738 339.263 340.644 340.903 343.534C346.005 352.532 351.428 361.348 357.173 369.981C364.782 381.418 372.331 391.52 380.999 402.215C381.238 402.511 380.811 402.933 380.571 402.633Z" fill="white"/>
<path d="M280.75 326.457C280.432 326.112 280.117 325.767 279.798 325.422C277.279 322.703 274.576 320.016 271.117 318.458C269.467 317.691 267.667 317.284 265.84 317.264C263.955 317.315 262.097 317.71 260.362 318.43C259.537 318.752 258.73 319.116 257.936 319.505C257.028 319.951 256.137 320.426 255.249 320.906C253.583 321.805 251.939 322.745 250.317 323.723C247.088 325.67 243.961 327.766 240.934 330.01C239.365 331.174 237.829 332.376 236.325 333.617C234.926 334.769 233.555 335.952 232.213 337.166C231.926 337.424 231.497 337.006 231.784 336.747C232.138 336.426 232.496 336.106 232.854 335.791C233.865 334.899 234.892 334.024 235.935 333.167C237.837 331.6 239.789 330.095 241.789 328.649C244.901 326.4 248.119 324.304 251.444 322.36C253.106 321.389 254.791 320.459 256.499 319.57C257.014 319.302 257.536 319.04 258.063 318.791C259.26 318.202 260.504 317.708 261.783 317.313C263.594 316.742 265.51 316.558 267.401 316.775C269.227 317.034 270.985 317.628 272.584 318.525C275.981 320.377 278.615 323.242 281.178 326.037C281.437 326.321 281.01 326.741 280.75 326.457Z" fill="white"/>
<path d="M350.338 354.628L358.476 351.724L362.517 350.281C363.823 349.768 365.154 349.321 366.506 348.941C367.689 348.611 368.944 348.627 370.117 348.986C371.163 349.363 372.121 349.943 372.933 350.689C373.763 351.435 374.535 352.24 375.243 353.097C376.123 354.128 376.99 355.171 377.861 356.21C381.454 360.498 385.024 364.805 388.57 369.131C392.116 373.456 395.639 377.8 399.137 382.162C402.645 386.535 406.128 390.926 409.587 395.336C410.011 395.876 410.434 396.417 410.857 396.957C411.091 397.256 411.618 396.962 411.381 396.659C407.896 392.205 404.387 387.769 400.854 383.352C397.312 378.924 393.746 374.515 390.155 370.124C386.564 365.734 382.949 361.363 379.31 357.011C378.403 355.926 377.495 354.843 376.586 353.761C375.818 352.849 375.06 351.926 374.218 351.077C373.501 350.234 372.622 349.538 371.629 349.028C370.636 348.517 369.55 348.203 368.433 348.103C367.079 348.149 365.746 348.435 364.498 348.947C363.137 349.427 361.78 349.916 360.421 350.401L352.226 353.326L350.177 354.058C349.813 354.188 349.97 354.76 350.338 354.628V354.628Z" fill="white"/>
<path d="M270.046 321.878C267.954 320.873 265.627 320.428 263.301 320.591C260.976 320.753 258.737 321.516 256.813 322.802C264.062 324.022 271.232 325.655 278.286 327.693C275.357 326.017 273.065 323.393 270.046 321.878Z" fill="white"/>
<path d="M256.773 322.795L255.976 323.426C256.246 323.205 256.526 322.998 256.813 322.802L256.773 322.795Z" fill="white"/>
<path d="M372.627 354.658C371.915 353.633 370.922 352.824 369.762 352.323L368.643 352.366C377.159 367.051 388.661 379.883 402.442 390.073L372.627 354.658Z" fill="white"/>
<path d="M367.393 338.579C370.951 338.579 373.836 335.764 373.836 332.292C373.836 328.82 370.951 326.005 367.393 326.005C363.835 326.005 360.951 328.82 360.951 332.292C360.951 335.764 363.835 338.579 367.393 338.579Z" fill="white"/>
<path d="M460.884 402.157C462.153 402.155 463.369 401.662 464.266 400.787C465.163 399.912 465.667 398.725 465.669 397.487V300.987C465.669 299.749 465.165 298.561 464.268 297.685C463.371 296.81 462.153 296.318 460.884 296.318C459.615 296.318 458.398 296.81 457.501 297.685C456.604 298.561 456.1 299.749 456.1 300.987V397.487C456.101 398.725 456.606 399.912 457.503 400.787C458.4 401.662 459.616 402.155 460.884 402.157Z" fill="#3F3D56"/>
<path d="M460.884 402.157C462.153 402.155 463.369 401.662 464.266 400.787C465.163 399.912 465.667 398.725 465.669 397.487V377.025C465.118 376.292 464.398 375.695 463.566 375.284C462.735 374.873 461.816 374.659 460.884 374.659C459.953 374.659 459.034 374.873 458.202 375.284C457.371 375.695 456.651 376.292 456.1 377.025V397.487C456.101 398.725 456.606 399.912 457.503 400.787C458.4 401.662 459.616 402.155 460.884 402.157Z" fill="#2F2E41"/>
<path d="M460.884 382.441C462.249 382.439 463.556 381.91 464.521 380.968C465.486 380.027 466.028 378.751 466.03 377.42V355.413C465.438 354.625 464.663 353.983 463.769 353.541C462.875 353.099 461.887 352.869 460.884 352.869C459.882 352.869 458.894 353.099 458 353.541C457.106 353.983 456.331 354.625 455.738 355.413V377.42C455.74 378.751 456.283 380.027 457.248 380.968C458.213 381.91 459.52 382.439 460.884 382.441Z" fill="#AB0000"/>
<path d="M460.884 378.44C461.879 378.439 462.833 378.052 463.537 377.366C464.24 376.679 464.636 375.748 464.638 374.777V358.726C464.205 358.151 463.64 357.683 462.988 357.361C462.336 357.038 461.615 356.87 460.884 356.87C460.153 356.87 459.433 357.038 458.781 357.361C458.128 357.683 457.563 358.151 457.131 358.726V374.777C457.133 375.748 457.528 376.679 458.232 377.366C458.936 378.052 459.889 378.439 460.884 378.44Z" fill="#3F3D56"/>
<path d="M313.273 510.567C312.433 509.833 311.925 508.804 311.862 507.705C311.799 506.606 312.185 505.528 312.936 504.707L354.74 459.059C355.113 458.653 355.563 458.322 356.066 458.085C356.57 457.849 357.116 457.712 357.673 457.681C358.231 457.65 358.789 457.727 359.317 457.907C359.844 458.087 360.329 458.367 360.746 458.73C361.162 459.093 361.501 459.533 361.744 460.024C361.986 460.515 362.127 461.048 362.158 461.592C362.189 462.137 362.111 462.682 361.926 463.196C361.742 463.71 361.455 464.184 361.083 464.591L319.278 510.238C318.526 511.058 317.471 511.553 316.345 511.615C315.219 511.676 314.114 511.3 313.273 510.567Z" fill="#AB0000"/>
<path d="M660.071 585.724C660.071 593.288 658.242 599.078 658.466 603.706C645.924 609.048 633.029 613.561 619.868 617.216C618.379 617.631 616.89 618.025 615.391 618.42C607.278 594.18 599.154 571.985 595.954 569.63C588.628 564.265 584.959 586.46 584.959 581.096C584.959 575.731 588.628 575.731 579.473 568.582C570.307 561.433 575.804 529.256 575.804 529.256L562.981 497.078L577.325 445.757L595.954 379.089H614.275C614.275 379.089 614.817 379.473 615.721 380.189C620.304 383.841 634.127 396.044 632.595 409.481C632.138 413.486 633.159 425.129 634.935 440.631C640.336 487.439 652.745 538.324 652.745 551.752C652.745 569.63 660.071 574.995 660.071 585.724Z" fill="#E6E6E6"/>
<path d="M644.709 440.456C644.687 440.404 644.677 440.362 644.656 440.321C644.245 439.241 643.765 438.188 643.22 437.166C640.126 431.491 643.401 422.774 639.913 413.145C634.278 397.539 627.409 388.335 617.339 380.086C617.042 379.837 616.744 379.598 616.435 379.349L616.425 379.339C609.705 373.954 601.602 368.921 591.543 362.654C589.449 361.346 587.258 359.987 584.983 358.555C582.048 356.718 582.208 350.596 582.378 344.122C582.569 336.931 582.771 329.48 579.156 324.832L578.922 324.531L578.55 324.438C566.154 322.045 553.512 321.094 540.888 321.605H540.877C535.516 321.799 530.194 322.561 525.002 323.877C524.619 323.981 524.236 324.085 523.864 324.209C523.577 324.282 523.29 324.375 523.003 324.469L522.769 324.552L522.588 324.718C519.09 328.132 518.282 334.254 517.899 340.635V340.645C517.824 341.808 517.761 342.97 517.707 344.132C517.41 350.337 517.133 356.2 514.794 358.742C509.576 364.51 503.269 369.245 496.218 372.688C485.234 377.98 476.547 377.814 476.419 377.814L475.409 377.782L475.313 378.758C468.019 392.32 468.296 427.309 468.072 464.778C468.062 466.864 468.047 468.96 468.03 471.066C467.902 488.519 467.562 506.273 466.222 522.45C465.637 529.402 464.882 536.053 463.872 542.269C458.96 572.536 436.705 547.405 426.061 567.545C426.411 569.526 427 571.459 427.815 573.304C429.038 574.01 430.293 574.695 431.537 575.38C437.056 578.378 442.677 581.177 448.401 583.774C448.72 583.919 449.039 584.065 449.358 584.2C459.857 588.94 470.679 592.969 481.746 596.257C483.905 596.9 486.063 597.512 488.243 598.093C507.525 603.288 527.379 606.19 547.374 606.737C547.455 606.728 547.537 606.725 547.618 606.727C571.265 606.089 594.757 602.784 617.626 596.879C617.945 596.796 618.264 596.713 618.583 596.63C620.082 596.236 621.571 595.842 623.06 595.427C636.221 591.772 649.117 587.259 661.658 581.917C661.671 582.372 661.717 582.827 661.796 583.276C661.807 583.423 661.828 583.568 661.86 583.712C661.881 583.546 661.902 583.38 661.913 583.214C661.977 582.726 662.03 582.228 662.083 581.73C668.591 519.804 655.076 467.227 644.709 440.456Z" fill="#3F3D56"/>
<path d="M498.574 288.683C505.064 300.264 515.402 309.343 527.885 314.424C540.369 319.505 554.253 320.287 567.252 316.639C580.252 312.991 591.59 305.132 599.401 294.356C607.211 283.579 611.028 270.529 610.223 257.353C609.417 244.177 604.038 231.661 594.97 221.868C585.902 212.074 573.687 205.585 560.336 203.471C546.984 201.357 533.293 203.743 521.517 210.237C509.741 216.73 500.583 226.944 495.549 239.195C495.277 239.86 495.032 240.525 494.787 241.216C491.941 248.939 490.807 257.164 491.46 265.346C492.113 273.529 494.538 281.483 498.574 288.683Z" fill="#FFB6B6"/>
<path d="M490.018 241.216C492.579 234.222 491.462 237.865 494.051 230.898C492.361 237.068 495.032 240.525 494.787 241.216H565.664V201.009C544.9 192.978 524.598 186.143 512.336 201.009C501.408 201.009 490.929 205.245 483.202 212.786C475.475 220.326 471.134 230.553 471.133 241.216H490.018Z" fill="#2F2E41"/>
<path d="M515.142 352.984C515.197 352.239 515.279 351.468 515.388 350.723C516.151 345.245 518.058 339.98 519.993 334.768C522.037 329.157 524.108 323.519 526.179 317.908C523.512 328.093 524.325 338.85 528.495 348.543C540.458 339.448 532.909 318.653 548.551 318.653C586.156 318.653 624.852 288.896 624.852 252.172C624.852 215.475 608.72 188.031 571.114 188.031C533.482 188.031 502.961 204.838 502.226 241.535C548.551 252.172 506.395 349.261 515.142 352.984Z" fill="#2F2E41"/>
<path d="M620.153 246.547C644.232 246.547 663.753 227.498 663.753 204C663.753 180.501 644.232 161.452 620.153 161.452C596.073 161.452 576.552 180.501 576.552 204C576.552 227.498 596.073 246.547 620.153 246.547Z" fill="#2F2E41"/>
<path d="M688.124 448.01C687.975 450.199 687.844 452.53 687.73 455.003C685.476 501.583 687.422 564.287 672.227 598.311C668.825 600.127 665.387 601.863 661.913 603.52C661.775 603.583 661.647 603.645 661.53 603.707C660.595 604.153 659.659 604.589 658.723 605.004C658.689 605.033 658.649 605.054 658.606 605.066C648.331 609.804 637.741 613.864 626.909 617.217C625.58 617.632 624.24 618.026 622.9 618.421C622.613 618.504 622.326 618.587 622.039 618.67C601.631 624.559 580.533 627.869 559.262 628.517C558.156 628.548 557.071 628.569 556.018 628.59C555.646 628.6 555.285 628.61 554.923 628.61C553.732 628.621 552.552 628.631 551.361 628.631C548.958 628.631 546.566 628.596 544.184 628.527C524.189 627.98 504.335 625.078 485.053 619.884C482.874 619.303 480.715 618.691 478.557 618.047C467.489 614.759 456.668 610.731 446.168 605.99C445.849 605.855 445.53 605.71 445.211 605.564C439.491 602.97 433.869 600.172 428.347 597.17C427.103 596.485 425.849 595.8 424.626 595.095C423.81 593.249 423.221 591.316 422.871 589.336C420.458 578.015 418.522 585.652 417.14 562.098C415.875 540.505 415.067 518.849 414.769 506.47C414.673 503.17 414.641 500.525 414.631 498.719C415.758 490.854 433.876 481.93 460.3 473.453C462.799 472.654 465.382 471.855 468.03 471.066C475.175 468.918 482.81 466.812 490.785 464.778C511.094 459.59 533.646 454.827 556.029 450.894C567.077 448.964 578.082 447.231 588.768 445.758C607.514 443.164 625.25 441.369 640.424 440.632C641.88 440.559 643.305 440.497 644.709 440.456C646.219 440.393 647.697 440.352 649.143 440.321C671.004 439.854 685.933 442.074 688.124 448.01Z" fill="#2F2E41"/>
<path opacity="0.2" d="M688.124 448.01C687.975 450.199 687.844 452.53 687.73 455.003C671.164 437.592 492.698 515.373 417.14 562.098C415.875 540.505 415.066 518.849 414.769 506.47C414.673 503.17 414.641 500.524 414.631 498.719C415.758 490.854 433.876 481.93 460.3 473.453C462.798 472.654 465.382 471.855 468.03 471.066C475.175 468.918 482.81 466.812 490.785 464.778C511.094 459.59 533.646 454.827 556.029 450.894C567.077 448.964 578.082 447.231 588.768 445.758C607.514 443.164 625.25 441.369 640.424 440.632C641.88 440.559 643.305 440.497 644.709 440.456C646.219 440.393 647.697 440.352 649.143 440.321C671.004 439.854 685.933 442.074 688.124 448.01Z" fill="black"/>
<path d="M325.184 501.98C326.857 504.039 328.973 505.715 331.382 506.889C333.791 508.064 336.435 508.709 339.127 508.779C341.819 508.849 344.494 508.342 346.964 507.294C349.433 506.245 351.637 504.681 353.42 502.712L413.974 526.981L407.439 494.404L350.939 476.352C347.35 473.647 342.869 472.322 338.346 472.626C333.823 472.931 329.571 474.843 326.396 478.002C323.222 481.162 321.345 485.347 321.121 489.766C320.898 494.186 322.343 498.531 325.184 501.98Z" fill="#FFB6B6"/>
<path d="M526.611 366.319L526.279 366.285L490.968 368.786C486.484 369.104 482.122 370.348 478.169 372.437C474.217 374.526 470.764 377.411 468.042 380.901C466.776 382.518 465.681 384.255 464.772 386.087L464.763 386.092C461.719 392.17 460.802 399.055 462.151 405.691L478.776 487.355L438.776 483.809L424.174 486.244L406.944 479.46L371.587 480.048L370.768 482.692L363.351 506.686L362.769 508.571L416.758 541.772L432.411 537.125L439.785 542.653L440.139 542.662L454.762 542.944L517.122 544.137L534.168 514.667L536.832 510.046C556.629 466.767 561.514 436.554 559.964 415.74C559.152 404.743 556.546 396.383 553.392 390.083C543.639 370.614 527.297 366.483 526.611 366.319Z" fill="#3F3D56"/>
<path d="M625.667 241.774C617.399 239.961 609.733 236.139 603.381 230.664C597.029 225.19 592.196 218.239 589.33 210.456C586.772 203.215 585.807 195.264 581.513 188.821C588.054 180.055 593.3 170.435 597.095 160.243C598.565 156.297 602.005 149.135 596.172 146.964C591.525 145.235 586.246 149.409 583.491 152.702C581.399 155.197 579.898 158.114 579.097 161.242C578.147 157.149 577.197 153.055 576.247 148.962C576.126 148.569 575.854 148.237 575.489 148.034C575.123 147.832 574.692 147.775 574.285 147.875C566.499 149.17 560.853 156.205 559.872 163.614C559.337 167.429 560.226 171.304 562.378 174.532C564.878 178.245 568.541 180.907 572.026 183.673C575.732 186.616 578.874 189.75 580.866 194.053C582.937 198.525 583.87 203.419 585.244 208.115C587.851 217.135 592.904 225.301 599.869 231.753C606.834 238.205 615.453 242.704 624.819 244.776C626.82 245.203 627.675 242.203 625.667 241.774ZM581.703 167.36C581.452 163.449 582.511 159.566 584.72 156.294C585.825 154.635 587.21 153.17 588.817 151.963C590.34 150.827 592.586 149.324 594.601 149.741C597.215 150.282 596.164 153.128 595.608 154.845C594.876 157.11 594.071 159.351 593.193 161.567C591.483 165.872 589.497 170.068 587.249 174.131C586.082 176.245 584.834 178.315 583.531 180.351C582.633 176.481 581.735 172.611 580.837 168.742C581.12 168.64 581.36 168.449 581.517 168.198C581.674 167.947 581.739 167.652 581.703 167.36ZM563.074 167.979C562.552 164.443 563.309 160.84 565.214 157.79C567.119 154.739 570.053 152.431 573.512 151.262C576.044 162.171 578.576 173.081 581.108 183.99C580.585 184.742 580.046 185.483 579.506 186.223C579.365 186.064 579.235 185.9 579.088 185.744C573.777 180.104 564.517 176.259 563.074 167.979Z" fill="#AB0000"/>
<path d="M151.867 646.949V532.667C133.547 628.959 84.4333 646.567 20.9667 646.567L151.867 646.949Z" fill="#AB0000" stroke="#AB0000"/>
</g>
<defs>
<linearGradient id="paint0_linear_508_23" x1="720.764" y1="347.647" x2="674.479" y2="572.034" gradientUnits="userSpaceOnUse">
<stop stop-color="#FF0000"/>
<stop offset="1" stop-color="#AB0000"/>
</linearGradient>
<clipPath id="clip0_508_23">
<rect width="816" height="646" fill="white"/>
</clipPath>
</defs>
</svg>
