<svg width="1440" height="200" viewBox="0 0 1440 200" fill="none" xmlns="http://www.w3.org/2000/svg">
<path d="M0 8.6712e-05L48 9.28252e-05C101.25 -0.000115209 168.75 8.6712e-05 263.25 0.000119724C351 6.53628e-05 364.5 6.05443e-05 528.75 0.000117278C603 0.000142925 624.348 3.29754e-05 724.5 8.6712e-05C818.673 0.000137291 1055.35 0.000124824 1155 8.6712e-05C1250.54 5.01728e-05 1338.75 8.6712e-05 1392 8.6712e-05H1440V200H1392C1344 200 1248 200 1152 200C1056 200 960 200 864 200C768 200 672 200 576 200C480 200 384 200 288 200C192 200 96 200 48 200H0V8.6712e-05Z" fill="url(#paint0_linear_514_115)"/>
<defs>
<linearGradient id="paint0_linear_514_115" x1="720" y1="9.27137" x2="720" y2="200" gradientUnits="userSpaceOnUse">
<stop stop-color="#AB0000"/>
<stop offset="1" stop-color="#FF0000"/>
</linearGradient>
</defs>
</svg>
