<svg width="1440" height="200" viewBox="0 0 1440 200" fill="none" xmlns="http://www.w3.org/2000/svg">
<path d="M-2 30.4423L46.0667 33.1866C94.1333 36.0288 190.267 41.5174 286.4 41.5174C382.533 41.5174 478.667 36.0288 574.8 27.3059C670.933 18.681 767.067 6.91981 863.2 2.31332C959.333 -2.19515 1055.47 0.353132 1151.6 5.93972C1247.73 11.5263 1343.87 19.9552 1391.93 24.2676L1440 28.4821V200H1391.93C1343.87 200 1247.73 200 1151.6 200C1055.47 200 959.333 200 863.2 200C767.067 200 670.933 200 574.8 200C478.667 200 382.533 200 286.4 200C190.267 200 94.1333 200 46.0667 200H-2V30.4423Z" fill="url(#paint0_linear_512_415)"/>
<defs>
<linearGradient id="paint0_linear_512_415" x1="719" y1="9.27137" x2="719" y2="200" gradientUnits="userSpaceOnUse">
<stop stop-color="#AB0200"/>
<stop offset="1" stop-color="#FF0A00"/>
</linearGradient>
</defs>
</svg>
